# Blender v2.78 (sub 0) OBJ File: ''
# www.blender.org
mtllib wheel2.mtl
o rim_Caliber_SM
v -9.677827 0.000003 6.413421
v -9.677803 -0.000002 -6.413453
v -9.491869 1.888057 6.413420
v -9.491845 1.888051 -6.413454
v -8.941117 3.703547 -6.413454
v -8.941141 3.703552 6.413420
v -8.046793 5.376710 -6.413453
v -8.046817 5.376715 6.413422
v -6.843232 6.843253 -6.413449
v -6.843254 6.843258 6.413422
v -5.376688 8.046814 -6.413447
v -5.376710 8.046819 6.413425
v -3.703538 8.941146 6.413427
v -3.703516 8.941142 -6.413445
v -1.888024 9.491862 -6.413441
v -1.888047 9.491867 6.413430
v -0.000001 9.677823 6.413432
v 0.000021 9.677818 -6.413437
v 1.888070 9.491859 -6.413433
v 1.888048 9.491864 6.413435
v 3.703536 8.941142 6.413437
v 3.703558 8.941137 -6.413428
v 5.376729 8.046807 -6.413424
v 5.376707 8.046812 6.413440
v 6.843271 6.843245 -6.413422
v 6.843249 6.843250 6.413443
v 8.046831 5.376698 -6.413419
v 8.046807 5.376703 6.413445
v 8.941155 3.703530 -6.413417
v 8.941131 3.703535 6.413449
v 9.491877 1.888036 -6.413414
v 9.491853 1.888041 6.413450
v 9.677807 -0.000020 6.413450
v 9.677831 -0.000025 -6.413414
v 9.491873 -1.888059 -6.413413
v 9.491849 -1.888054 6.413451
v 8.941122 -3.703552 6.413451
v 8.941146 -3.703557 -6.413413
v 8.046796 -5.376717 6.413449
v 8.046820 -5.376722 -6.413413
v 6.843233 -6.843260 6.413449
v 6.843255 -6.843266 -6.413417
v 5.376713 -8.046821 -6.413419
v 5.376691 -8.046816 6.413446
v 3.703548 -8.941144 -6.413422
v 3.703526 -8.941140 6.413444
v 1.888065 -9.491864 -6.413425
v 1.888043 -9.491859 6.413441
v 0.000015 -9.677822 -6.413429
v -0.000008 -9.677817 6.413439
v -1.888025 -9.491866 -6.413434
v -1.888047 -9.491861 6.413436
v -3.703517 -8.941145 -6.413437
v -3.703540 -8.941140 6.413434
v -5.376681 -8.046821 -6.413442
v -5.376703 -8.046816 6.413431
v -6.843227 -6.843262 -6.413445
v -6.843249 -6.843256 6.413428
v -8.046804 -5.376725 6.413425
v -8.046781 -5.376730 -6.413447
v -8.941140 -3.703554 6.413422
v -8.941115 -3.703560 -6.413448
v -9.491864 -1.888074 6.413421
v -9.491840 -1.888079 -6.413452
v -9.961286 1.981429 -7.096709
v -11.156441 0.000003 -7.096710
v -10.942071 2.176519 -7.096711
v -10.156441 -0.000002 -7.096709
v -10.307203 4.269394 -7.096711
v -9.383322 3.886714 -7.096710
v -9.276234 6.198200 -7.096711
v -8.444765 5.642630 -7.096709
v -7.888786 7.888809 -7.096707
v -7.181680 7.181702 -7.096706
v -6.198175 9.276258 -7.096704
v -5.642604 8.444787 -7.096704
v -4.269369 10.307226 -7.096701
v -3.886681 9.383348 -7.096700
v -2.176494 10.942090 -7.096698
v -1.981400 9.961304 -7.096697
v 0.000023 11.156459 -7.096694
v 0.000023 10.156458 -7.096694
v 2.176541 10.942088 -7.096689
v 1.981450 9.961301 -7.096689
v 3.886727 9.383342 -7.096685
v 4.269415 10.307220 -7.096685
v 5.642649 8.444779 -7.096681
v 6.198220 9.276250 -7.096681
v 7.181723 7.181694 -7.096679
v 7.888830 7.888800 -7.096678
v 9.276276 6.198185 -7.096675
v 8.444806 5.642615 -7.096676
v 10.307240 4.269378 -7.096673
v 9.383360 3.886697 -7.096674
v 9.961318 1.981413 -7.096671
v 10.942103 2.176502 -7.096670
v 11.156469 -0.000017 -7.096669
v 10.156469 -0.000027 -7.096671
v 10.942099 -2.176534 -7.096668
v 9.961315 -1.981437 -7.096671
v 10.307229 -4.269409 -7.096669
v 9.383350 -3.886725 -7.096670
v 9.276261 -6.198211 -7.096669
v 8.444793 -5.642640 -7.096671
v 7.181705 -7.181715 -7.096673
v 7.888811 -7.888824 -7.096673
v 6.198201 -9.276265 -7.096675
v 5.642631 -8.444796 -7.096675
v 4.269400 -10.307229 -7.096679
v 3.886717 -9.383348 -7.096679
v 1.981445 -9.961306 -7.096682
v 2.176529 -10.942094 -7.096682
v 0.000016 -10.156462 -7.096686
v 0.000016 -11.156463 -7.096685
v -1.981400 -9.961308 -7.096690
v -2.176496 -10.942095 -7.096690
v -3.886683 -9.383349 -7.096694
v -4.269365 -10.307230 -7.096695
v -6.198166 -9.276265 -7.096699
v -5.642596 -8.444795 -7.096699
v -7.888775 -7.888824 -7.096702
v -7.181673 -7.181712 -7.096701
v -9.276224 -6.198217 -7.096704
v -8.444753 -5.642650 -7.096704
v -9.383319 -3.886728 -7.096705
v -10.307195 -4.269419 -7.096706
v -10.942065 -2.176551 -7.096710
v -9.961281 -1.981458 -7.096709
v -10.156466 0.000004 7.096679
v -10.942090 -2.176544 7.096677
v -9.961306 -1.981452 7.096679
v -11.156466 0.000009 7.096676
v -10.307220 -4.269413 7.096678
v -9.383344 -3.886722 7.096680
v -9.276249 -6.198212 7.096681
v -8.444777 -5.642644 7.096683
v -7.888801 -7.888818 7.096684
v -7.181699 -7.181706 7.096685
v -6.198192 -9.276260 7.096688
v -5.642622 -8.444789 7.096687
v -4.269391 -10.307225 7.096691
v -3.886708 -9.383345 7.096691
v -2.176521 -10.942090 7.096693
v -1.981426 -9.961304 7.096693
v -0.000009 -11.156458 7.096697
v -0.000010 -10.156457 7.096696
v 2.176504 -10.942089 7.096700
v 1.981420 -9.961301 7.096699
v 4.269374 -10.307224 7.096702
v 3.886692 -9.383344 7.096701
v 5.642606 -8.444790 7.096704
v 6.198176 -9.276260 7.096705
v 7.181679 -7.181710 7.096707
v 7.888785 -7.888818 7.096708
v 9.276236 -6.198205 7.096708
v 8.444768 -5.642633 7.096706
v 10.307204 -4.269403 7.096710
v 9.383325 -3.886719 7.096708
v 10.942074 -2.176528 7.096711
v 9.961289 -1.981431 7.096708
v 11.156445 -0.000011 7.096710
v 10.156445 -0.000020 7.096708
v 10.942079 2.176508 7.096709
v 9.961293 1.981419 7.096707
v 10.307216 4.269384 7.096708
v 9.383335 3.886703 7.096706
v 9.276251 6.198191 7.096705
v 8.444781 5.642621 7.096703
v 7.181697 7.181700 7.096701
v 7.888804 7.888806 7.096702
v 6.198195 9.276255 7.096698
v 5.642623 8.444785 7.096698
v 4.269390 10.307225 7.096695
v 3.886701 9.383347 7.096694
v 2.176515 10.942093 7.096693
v 1.981425 9.961306 7.096693
v -0.000002 11.156464 7.096689
v -0.000003 10.156463 7.096690
v -2.176519 10.942095 7.096686
v -1.981425 9.961308 7.096687
v -4.269395 10.307231 7.096684
v -3.886707 9.383352 7.096685
v -6.198200 9.276262 7.096682
v -5.642630 8.444793 7.096682
v -7.181705 7.181708 7.096680
v -7.888812 7.888815 7.096679
v -8.444790 5.642636 7.096680
v -9.276259 6.198205 7.096678
v -9.383348 3.886720 7.096678
v -10.307228 4.269400 7.096676
v -9.961311 1.981436 7.096679
v -10.942096 2.176525 7.096675
v -11.413112 0.000003 -6.413455
v -11.193810 2.226594 -6.413455
v -10.544335 4.367618 -6.413455
v -9.489649 6.340798 -6.413455
v -8.070280 8.070303 -6.413452
v -6.340775 9.489673 -6.413449
v -4.367595 10.544359 -6.413445
v -2.226570 11.193830 -6.413442
v 0.000022 11.413129 -6.413438
v 2.226613 11.193828 -6.413433
v 4.367638 10.544354 -6.413428
v 6.340817 9.489664 -6.413424
v 8.070323 8.070293 -6.413420
v 9.489691 6.340785 -6.413418
v 10.544374 4.367602 -6.413415
v 11.193842 2.226576 -6.413413
v 11.413139 -0.000016 -6.413411
v 11.193837 -2.226608 -6.413411
v 10.544363 -4.367633 -6.413412
v 9.489675 -6.340812 -6.413412
v 8.070303 -8.070316 -6.413414
v 6.340799 -9.489681 -6.413417
v 4.367622 -10.544363 -6.413421
v 2.226601 -11.193832 -6.413424
v 0.000015 -11.413136 -6.413428
v -2.226571 -11.193833 -6.413433
v -4.367591 -10.544363 -6.413438
v -6.340766 -9.489680 -6.413442
v -8.070270 -8.070317 -6.413446
v -9.489639 -6.340816 -6.413448
v -10.544328 -4.367643 -6.413451
v -11.193805 -2.226625 -6.413454
v -11.413136 0.000009 6.413417
v -11.193829 -2.226620 6.413419
v -10.544353 -4.367638 6.413419
v -9.489663 -6.340811 6.413423
v -8.070293 -8.070312 6.413426
v -6.340788 -9.489675 6.413430
v -4.367613 -10.544359 6.413433
v -2.226594 -11.193830 6.413436
v -0.000008 -11.413129 6.413439
v 2.226578 -11.193829 6.413443
v 4.367599 -10.544359 6.413446
v 6.340776 -9.489676 6.413449
v 8.070280 -8.070311 6.413451
v 9.489651 -6.340806 6.413451
v 10.544338 -4.367628 6.413453
v 11.193813 -2.226603 6.413454
v 11.413116 -0.000011 6.413454
v 11.193818 2.226582 6.413452
v 10.544349 4.367607 6.413452
v 9.489666 6.340790 6.413448
v 8.070300 8.070299 6.413445
v 6.340796 9.489670 6.413441
v 4.367616 10.544358 6.413438
v 2.226591 11.193831 6.413435
v -0.000001 11.413136 6.413432
v -2.226592 11.193833 6.413428
v -4.367617 10.544363 6.413425
v -6.340796 9.489678 6.413422
v -8.070303 8.070309 6.413420
v -9.489673 6.340804 6.413420
v -10.544360 4.367623 6.413418
v -11.193834 2.226599 6.413417
v -5.506789 8.241508 -0.000025
v -3.938493 9.508368 5.498433
v -3.793140 9.157474 -0.000021
v -5.717805 8.557304 5.498425
v -7.008818 7.008832 -0.000029
v -7.277388 7.277392 5.498416
v -8.557300 5.717812 5.498411
v -8.241498 5.506805 -0.000031
v -9.508363 3.938498 5.498404
v -9.157463 3.793154 -0.000034
v -10.094027 2.007832 5.498406
v -9.721512 1.933735 -0.000033
v -10.291781 0.000006 5.498409
v -9.911969 0.000004 -0.000032
v -9.721507 -1.933758 -0.000030
v -10.094020 -2.007854 5.498416
v -9.157455 -3.793172 -0.000026
v -9.508355 -3.938517 5.498425
v -8.241488 -5.506818 -0.000020
v -8.557290 -5.717824 5.498442
v -7.008809 -7.008840 -0.000016
v -7.277378 -7.277400 5.498454
v -5.717798 -8.557308 5.498472
v -5.506782 -8.241514 -0.000009
v -3.938489 -9.508369 5.498490
v -3.793137 -9.157479 -0.000002
v -2.007827 -10.094028 5.498503
v -1.933722 -9.721527 0.000004
v -0.000004 -10.291782 5.498517
v 0.000004 -9.911982 0.000010
v 1.933730 -9.721526 0.000017
v 2.007817 -10.094028 5.498535
v 3.793146 -9.157477 0.000022
v 3.938481 -9.508368 5.498548
v 5.506793 -8.241513 0.000029
v 5.717791 -8.557307 5.498564
v 7.008820 -7.008840 0.000033
v 7.277371 -7.277400 5.498573
v 8.557287 -5.717819 5.498578
v 8.241502 -5.506814 0.000035
v 9.508351 -3.938507 5.498577
v 9.157468 -3.793163 0.000036
v 10.094015 -2.007839 5.498574
v 9.721516 -1.933743 0.000035
v 10.291771 -0.000012 5.498571
v 9.911976 -0.000013 0.000034
v 9.721521 1.933719 0.000031
v 10.094019 2.007816 5.498564
v 9.157476 3.793140 0.000028
v 9.508362 3.938484 5.498555
v 8.241514 5.506793 0.000024
v 8.557302 5.717800 5.498547
v 7.008837 7.008821 0.000018
v 7.277389 7.277383 5.498527
v 5.506809 8.241503 0.000010
v 5.717808 8.557299 5.498508
v 3.793160 9.157472 0.000006
v 3.938496 9.508366 5.498498
v 1.933741 9.721521 -0.000003
v 2.007828 10.094028 5.498476
v 0.000010 9.911981 -0.000008
v 0.000002 10.291784 5.498463
v -1.933721 9.721523 -0.000016
v -2.007825 10.094029 5.498444
v -3.938493 9.508368 5.498433
v -5.717805 8.557304 5.498425
v -3.938475 9.508367 -5.498549
v -5.717788 8.557303 -5.498561
v -7.277388 7.277392 5.498416
v -7.277370 7.277392 -5.498570
v -8.557300 5.717812 5.498411
v -8.557283 5.717811 -5.498579
v -9.508363 3.938498 5.498404
v -9.508347 3.938497 -5.498582
v -10.094027 2.007832 5.498406
v -10.094010 2.007830 -5.498580
v -10.291781 0.000006 5.498409
v -10.291765 0.000004 -5.498576
v -10.094020 -2.007854 5.498416
v -10.094005 -2.007856 -5.498569
v -9.508355 -3.938517 5.498425
v -9.508340 -3.938518 -5.498557
v -8.557290 -5.717824 5.498442
v -8.557275 -5.717825 -5.498544
v -7.277378 -7.277400 5.498454
v -7.277361 -7.277400 -5.498533
v -5.717798 -8.557308 5.498472
v -5.717781 -8.557309 -5.498514
v -3.938489 -9.508369 5.498490
v -3.938472 -9.508370 -5.498496
v -2.007827 -10.094028 5.498503
v -2.007810 -10.094031 -5.498478
v -0.000004 -10.291782 5.498517
v 0.000012 -10.291784 -5.498460
v 2.007817 -10.094028 5.498535
v 2.007834 -10.094030 -5.498442
v 3.938481 -9.508368 5.498548
v 3.938498 -9.508369 -5.498430
v 5.717791 -8.557307 5.498564
v 5.717808 -8.557308 -5.498414
v 7.277371 -7.277400 5.498573
v 7.277389 -7.277400 -5.498405
v 8.557287 -5.717819 5.498578
v 8.557303 -5.717820 -5.498396
v 9.508351 -3.938507 5.498577
v 9.508368 -3.938508 -5.498396
v 10.094015 -2.007839 5.498574
v 10.094030 -2.007840 -5.498399
v 10.291771 -0.000012 5.498571
v 10.291787 -0.000014 -5.498403
v 10.094019 2.007816 5.498564
v 10.094034 2.007814 -5.498410
v 9.508362 3.938484 5.498555
v 9.508377 3.938483 -5.498423
v 8.557302 5.717800 5.498547
v 8.557317 5.717800 -5.498431
v 7.277389 7.277383 5.498527
v 7.277406 7.277382 -5.498446
v 5.717808 8.557299 5.498508
v 5.717825 8.557298 -5.498466
v 3.938496 9.508366 5.498498
v 3.938513 9.508364 -5.498479
v 2.007828 10.094028 5.498476
v 2.007845 10.094026 -5.498501
v 0.000002 10.291784 5.498463
v 0.000019 10.291781 -5.498519
v -2.007825 10.094029 5.498444
v -2.007808 10.094028 -5.498538
v -3.938475 9.508367 -5.498549
v -5.506789 8.241508 -0.000025
v -3.793140 9.157474 -0.000021
v -5.717788 8.557303 -5.498561
v -7.008818 7.008832 -0.000029
v -7.277370 7.277392 -5.498570
v -8.557283 5.717811 -5.498579
v -8.241498 5.506805 -0.000031
v -9.508347 3.938497 -5.498582
v -9.157463 3.793154 -0.000034
v -10.094010 2.007830 -5.498580
v -9.721512 1.933735 -0.000033
v -10.291765 0.000004 -5.498576
v -9.911969 0.000004 -0.000032
v -9.721507 -1.933758 -0.000030
v -10.094005 -2.007856 -5.498569
v -9.157455 -3.793172 -0.000026
v -9.508340 -3.938518 -5.498557
v -8.241488 -5.506818 -0.000020
v -8.557275 -5.717825 -5.498544
v -7.008809 -7.008840 -0.000016
v -7.277361 -7.277400 -5.498533
v -5.717781 -8.557309 -5.498514
v -5.506782 -8.241514 -0.000009
v -3.938472 -9.508370 -5.498496
v -3.793137 -9.157479 -0.000002
v -2.007810 -10.094031 -5.498478
v -1.933722 -9.721527 0.000004
v 0.000012 -10.291784 -5.498460
v 0.000004 -9.911982 0.000010
v 1.933730 -9.721526 0.000017
v 2.007834 -10.094030 -5.498442
v 3.793146 -9.157477 0.000022
v 3.938498 -9.508369 -5.498430
v 5.506793 -8.241513 0.000029
v 5.717808 -8.557308 -5.498414
v 7.008820 -7.008840 0.000033
v 7.277389 -7.277400 -5.498405
v 8.557303 -5.717820 -5.498396
v 8.241502 -5.506814 0.000035
v 9.508368 -3.938508 -5.498396
v 9.157468 -3.793163 0.000036
v 10.094030 -2.007840 -5.498399
v 9.721516 -1.933743 0.000035
v 10.291787 -0.000014 -5.498403
v 9.911976 -0.000013 0.000034
v 9.721521 1.933719 0.000031
v 10.094034 2.007814 -5.498410
v 9.157476 3.793140 0.000028
v 9.508377 3.938483 -5.498423
v 8.241514 5.506793 0.000024
v 8.557317 5.717800 -5.498431
v 7.008837 7.008821 0.000018
v 7.277406 7.277382 -5.498446
v 5.717825 8.557298 -5.498466
v 5.506809 8.241503 0.000010
v 3.938513 9.508364 -5.498479
v 3.793160 9.157472 0.000006
v 2.007845 10.094026 -5.498501
v 1.933741 9.721521 -0.000003
v 0.000019 10.291781 -5.498519
v 0.000010 9.911981 -0.000008
v -1.933721 9.721523 -0.000016
v -2.007808 10.094028 -5.498538
v -1.666869 2.294265 3.637002
v -1.666869 -2.294221 3.636999
v -2.697048 -0.876301 3.637001
v 1.666861 -2.294220 3.636998
v 2.697039 0.876345 3.637000
v 2.697039 -0.876300 3.637000
v -0.000004 -2.835818 3.636999
v -0.000004 2.835862 3.637002
v -2.697048 0.876345 3.637001
v 1.666860 2.294265 3.637002
v 9.391127 0.875231 5.810360
v 9.391126 -0.875186 5.810360
v 10.101106 -0.875068 5.810358
v 10.101106 0.875113 5.810359
v 7.083145 6.228052 5.810363
v 8.112015 4.811935 5.810363
v 3.734386 8.661069 5.810365
v 2.069641 9.201979 5.810365
v -2.069655 9.201978 5.810366
v -3.734400 8.661068 5.810366
v -7.083160 6.228052 5.810365
v -8.112029 4.811934 5.810365
v -9.391142 0.875230 5.810363
v -9.391141 -0.875187 5.810363
v -8.112030 -4.811892 5.810360
v -7.083160 -6.228009 5.810360
v -3.734401 -8.661026 5.810359
v -2.069656 -9.201933 5.810359
v 3.734386 -8.661024 5.810358
v 2.069641 -9.201933 5.810357
v 7.083148 -6.228005 5.810358
v 8.112016 -4.811887 5.810359
v 9.260645 5.646757 6.810360
v 8.112014 4.811934 6.810363
v 8.686330 5.229347 5.810361
v 8.112015 4.811935 5.810363
v 7.083144 6.228052 6.810363
v 7.657600 6.645273 5.810362
v 7.083145 6.228052 5.810363
v 8.232054 7.062491 6.810360
v 1.666859 2.294264 4.637002
v 1.666860 2.294265 3.637002
v 1.666860 2.294265 3.637002
v 3.734386 8.661069 5.810365
v 1.666859 2.294264 4.637002
v 3.734384 8.661067 6.810365
v 3.953669 9.336336 5.810363
v 4.172951 10.011601 6.810363
v 2.289149 9.877172 5.810364
v 2.069639 9.201977 6.810365
v 2.508655 10.552365 6.810363
v 2.069641 9.201979 5.810365
v -0.000006 2.835861 4.637002
v -0.000004 2.835862 3.637002
v -0.000004 2.835862 3.637002
v -2.069655 9.201978 5.810366
v -0.000006 2.835861 4.637002
v -2.069656 9.201977 6.810366
v -2.289163 9.877172 5.810365
v -2.508672 10.552364 6.810364
v -3.953683 9.336335 5.810364
v -3.734401 8.661067 6.810366
v -4.172967 10.011601 6.810364
v -3.734400 8.661068 5.810366
v -1.666871 2.294264 4.637002
v -1.666869 2.294265 3.637002
v -7.083160 6.228052 5.810365
v -1.666871 2.294264 4.637002
v -1.666869 2.294265 3.637002
v -7.083162 6.228051 6.810366
v -7.657615 6.645272 5.810363
v -8.232071 7.062490 6.810363
v -8.686346 5.229346 5.810364
v -8.112030 4.811934 6.810365
v -9.260663 5.646756 6.810362
v -8.112029 4.811934 5.810365
v -2.697050 0.876344 4.637001
v -2.697048 0.876345 3.637001
v -9.391142 0.875230 5.810363
v -2.697050 0.876344 4.637001
v -2.697048 0.876345 3.637001
v -9.391143 0.875229 6.810363
v -10.101122 0.875111 5.810362
v -10.811102 0.874992 6.810361
v -10.101120 -0.875069 5.810362
v -9.391143 -0.875189 6.810363
v -10.811101 -0.874952 6.810361
v -9.391141 -0.875187 5.810363
v -2.697049 -0.876302 4.637001
v -2.697048 -0.876301 3.637001
v -8.112030 -4.811892 5.810360
v -2.697049 -0.876302 4.637001
v -2.697048 -0.876301 3.637001
v -8.112031 -4.811893 6.810360
v -8.686345 -5.229303 5.810359
v -9.260662 -5.646716 6.810359
v -7.657615 -6.645229 5.810359
v -7.083161 -6.228010 6.810360
v -8.232071 -7.062450 6.810358
v -7.083160 -6.228009 5.810360
v -1.666871 -2.294222 4.636999
v -1.666869 -2.294221 3.636999
v -1.666869 -2.294221 3.636999
v -3.734401 -8.661026 5.810359
v -1.666871 -2.294222 4.636999
v -3.734403 -8.661026 6.810359
v -4.172970 -10.011560 6.810356
v -3.953685 -9.336292 5.810357
v -2.069657 -9.201935 6.810359
v -2.289164 -9.877129 5.810357
v -2.069656 -9.201933 5.810359
v -2.508674 -10.552323 6.810356
v -0.000006 -2.835819 4.636998
v -0.000004 -2.835818 3.636999
v -0.000004 -2.835818 3.636999
v 2.069641 -9.201933 5.810357
v -0.000006 -2.835819 4.636998
v 2.069640 -9.201935 6.810358
v 2.508656 -10.552323 6.810355
v 2.289149 -9.877128 5.810356
v 3.734385 -8.661026 6.810358
v 3.953670 -9.336291 5.810356
v 3.734386 -8.661024 5.810358
v 4.172951 -10.011560 6.810355
v 1.666859 -2.294221 4.636998
v 1.666861 -2.294220 3.636998
v 1.666861 -2.294220 3.636998
v 7.083148 -6.228005 5.810358
v 1.666859 -2.294221 4.636998
v 7.083147 -6.228006 6.810359
v 8.232057 -7.062445 6.810356
v 7.657602 -6.645224 5.810357
v 8.112015 -4.811888 6.810359
v 8.686333 -5.229298 5.810357
v 8.112016 -4.811887 5.810359
v 9.260648 -5.646710 6.810357
v 2.697038 -0.876301 4.637000
v 2.697039 -0.876300 3.637000
v 2.697039 -0.876300 3.637000
v 9.391126 -0.875186 5.810360
v 2.697038 -0.876301 4.637000
v 9.391125 -0.875187 6.810360
v 10.811085 -0.874951 6.810358
v 10.101106 -0.875068 5.810358
v 9.391126 0.875230 6.810360
v 10.101106 0.875113 5.810359
v 9.391127 0.875231 5.810360
v 10.811084 0.874994 6.810358
v 2.697037 0.876344 4.637000
v 2.697039 0.876345 3.637000
v 2.697039 0.876345 3.637000
v 2.697037 0.876344 4.637000
v -2.697049 -0.876302 4.637001
v -0.000006 -2.835819 4.636998
v -1.666871 2.294264 4.637002
v -1.666871 -2.294222 4.636999
v 2.697037 0.876344 4.637000
v 1.666859 -2.294221 4.636998
v 2.697038 -0.876301 4.637000
v -0.000006 2.835861 4.637002
v 1.666859 2.294264 4.637002
v -2.697050 0.876344 4.637001
v 9.391126 0.875230 6.810360
v 9.391125 -0.875187 6.810360
v 8.112014 4.811934 6.810363
v 8.232054 7.062491 6.810360
v 7.083144 6.228052 6.810363
v 9.260645 5.646757 6.810360
v 4.172951 10.011601 6.810363
v 2.508655 10.552365 6.810363
v 2.069639 9.201977 6.810365
v 3.734384 8.661067 6.810365
v -4.172967 10.011601 6.810364
v -2.069656 9.201977 6.810366
v -2.508672 10.552364 6.810364
v -3.734401 8.661067 6.810366
v -8.112030 4.811934 6.810365
v -7.083162 6.228051 6.810366
v -8.232071 7.062490 6.810363
v -9.260663 5.646756 6.810362
v -9.391143 0.875229 6.810363
v -10.811101 -0.874952 6.810361
v -9.391143 -0.875189 6.810363
v -10.811102 0.874992 6.810361
v -8.232071 -7.062450 6.810358
v -8.112031 -4.811893 6.810360
v -9.260662 -5.646716 6.810359
v -7.083161 -6.228010 6.810360
v -3.734403 -8.661026 6.810359
v -2.508674 -10.552323 6.810356
v -2.069657 -9.201935 6.810359
v -4.172970 -10.011560 6.810356
v 2.069640 -9.201935 6.810358
v 4.172951 -10.011560 6.810355
v 3.734385 -8.661026 6.810358
v 2.508656 -10.552323 6.810355
v 9.260648 -5.646710 6.810357
v 8.112015 -4.811888 6.810359
v 8.232057 -7.062445 6.810356
v 7.083147 -6.228006 6.810359
v 10.811085 -0.874951 6.810358
v 10.811084 0.874994 6.810358
v 8.686330 5.229347 5.810361
v 7.657600 6.645273 5.810362
v 3.953669 9.336336 5.810363
v 2.289149 9.877172 5.810364
v -3.953683 9.336335 5.810364
v -2.289163 9.877172 5.810365
v -7.657615 6.645272 5.810363
v -8.686346 5.229346 5.810364
v -10.101120 -0.875069 5.810362
v -10.101122 0.875111 5.810362
v -8.686345 -5.229303 5.810359
v -7.657615 -6.645229 5.810359
v -2.289164 -9.877129 5.810357
v -3.953685 -9.336292 5.810357
v 3.953670 -9.336291 5.810356
v 2.289149 -9.877128 5.810356
v 7.657602 -6.645224 5.810357
v 8.686333 -5.229298 5.810357
vt 0.2952 0.7982
vt 0.2959 0.7994
vt 0.4036 0.9017
vt 0.4656 0.7122
vt 0.4707 0.7319
vt 0.3184 0.7310
vt 0.4819 0.7097
vt 0.5005 0.7300
vt 0.4036 0.5979
vt 0.4192 0.6111
vt 0.2959 0.7004
vt 0.4153 0.5864
vt 0.4421 0.5920
vt 0.1008 0.6111
vt 0.1165 0.5979
vt 0.2241 0.7004
vt 0.1048 0.5864
vt 0.0779 0.5920
vt 0.0718 0.6589
vt 0.0796 0.6401
vt 0.2018 0.7310
vt 0.0574 0.6511
vt 0.0544 0.6240
vt 0.0495 0.7319
vt 0.0545 0.7122
vt 0.2018 0.7310
vt 0.0382 0.7097
vt 0.0197 0.7300
vt 0.0545 0.7876
vt 0.0495 0.7678
vt 0.2018 0.7688
vt 0.0382 0.7899
vt 0.0197 0.7698
vt 0.0796 0.8597
vt 0.0718 0.8408
vt 0.2018 0.7688
vt 0.0574 0.8485
vt 0.0544 0.8758
vt 0.1165 0.9017
vt 0.1008 0.8887
vt 0.2241 0.7994
vt 0.1048 0.9132
vt 0.0779 0.9078
vt 0.1782 0.9446
vt 0.1609 0.9338
vt 0.2241 0.7994
vt 0.1537 0.9486
vt 0.1674 0.9724
vt 0.2329 0.9570
vt 0.2125 0.9556
vt 0.2600 0.8110
vt 0.2301 0.9732
vt 0.2052 0.9846
vt 0.3076 0.9556
vt 0.2871 0.9570
vt 0.2600 0.8110
vt 0.2900 0.9732
vt 0.3149 0.9846
vt 0.3591 0.9338
vt 0.3418 0.9446
vt 0.2959 0.7994
vt 0.3665 0.9486
vt 0.3528 0.9724
vt 0.8467 0.0508
vt 0.8765 0.0508
vt 0.8765 0.2354
vt 0.8765 0.0391
vt 0.8467 0.0391
vt 0.9067 0.0391
vt 0.8467 0.0249
vt 0.8765 0.0249
vt 0.9067 0.0249
vt 0.9375 0.0249
vt 0.9375 0.0391
vt 0.9067 0.0508
vt 0.9067 0.2354
vt 0.9067 0.2471
vt 0.9663 0.0249
vt 0.9663 0.0391
vt 0.9663 0.0146
vt 0.9375 0.0146
vt 0.9067 0.0146
vt 0.8765 0.0146
vt 0.8462 0.0146
vt 0.8164 0.0146
vt 0.8164 0.0249
vt 0.8164 0.0391
vt 0.7866 0.0391
vt 0.8164 0.0508
vt 0.7866 0.0508
vt 0.8164 0.2354
vt 0.7866 0.2354
vt 0.7866 0.2471
vt 0.7568 0.2471
vt 0.7563 0.2612
vt 0.8467 0.2354
vt 0.7568 0.2354
vt 0.7266 0.2471
vt 0.7266 0.2612
vt 0.6968 0.2612
vt 0.7266 0.2354
vt 0.7266 0.2720
vt 0.6968 0.2720
vt 0.6670 0.2612
vt 0.6670 0.2720
vt 0.6367 0.2612
vt 0.6367 0.2720
vt 0.6069 0.2612
vt 0.6069 0.2720
vt 0.6968 0.2354
vt 0.7266 0.0508
vt 0.6968 0.2471
vt 0.6670 0.2471
vt 0.6367 0.2471
vt 0.6372 0.2354
vt 0.6069 0.2354
vt 0.6069 0.0508
vt 0.6670 0.2354
vt 0.5771 0.2354
vt 0.5771 0.0508
vt 0.5771 0.2471
vt 0.6069 0.2471
vt 0.5474 0.2471
vt 0.5474 0.2612
vt 0.5771 0.2612
vt 0.5171 0.2612
vt 0.5771 0.2720
vt 0.5474 0.2720
vt 0.5171 0.2720
vt 0.4875 0.2720
vt 0.4875 0.2612
vt 0.4575 0.2612
vt 0.4575 0.2471
vt 0.4578 0.2354
vt 0.4875 0.2471
vt 0.5171 0.2471
vt 0.5474 0.2354
vt 0.5474 0.0508
vt 0.5474 0.0391
vt 0.5176 0.0391
vt 0.5176 0.0249
vt 0.4280 0.0249
vt 0.3979 0.0249
vt 0.4280 0.0146
vt 0.4578 0.0146
vt 0.4578 0.0249
vt 0.4878 0.0146
vt 0.4878 0.0249
vt 0.4878 0.0391
vt 0.5176 0.0508
vt 0.4578 0.0391
vt 0.4578 0.0508
vt 0.3682 0.0249
vt 0.3682 0.0391
vt 0.3979 0.0391
vt 0.4280 0.0391
vt 0.4280 0.0508
vt 0.4277 0.2354
vt 0.3979 0.2354
vt 0.3979 0.0508
vt 0.3381 0.2354
vt 0.3081 0.2354
vt 0.3381 0.0508
vt 0.3679 0.0508
vt 0.3381 0.0391
vt 0.3679 0.2354
vt 0.3979 0.2471
vt 0.4277 0.2471
vt 0.4277 0.2612
vt 0.3979 0.2612
vt 0.3679 0.2471
vt 0.3381 0.2471
vt 0.3081 0.2471
vt 0.3679 0.2612
vt 0.3979 0.2720
vt 0.4277 0.2720
vt 0.4575 0.2720
vt 0.3679 0.2720
vt 0.3381 0.2720
vt 0.3381 0.2612
vt 0.3081 0.2720
vt 0.3081 0.2612
vt 0.2783 0.2720
vt 0.2783 0.2612
vt 0.2485 0.2720
vt 0.2485 0.2612
vt 0.2186 0.2612
vt 0.2484 0.2471
vt 0.2783 0.2471
vt 0.1886 0.2354
vt 0.2185 0.2471
vt 0.1886 0.2471
vt 0.2185 0.2354
vt 0.1886 0.2612
vt 0.2783 0.2354
vt 0.2484 0.2354
vt 0.2185 0.0508
vt 0.1886 0.0508
vt 0.1586 0.0508
vt 0.1886 0.0391
vt 0.2484 0.0508
vt 0.2485 0.0146
vt 0.2783 0.0249
vt 0.2485 0.0249
vt 0.2185 0.0249
vt 0.2185 0.0391
vt 0.2484 0.0391
vt 0.2783 0.0508
vt 0.2783 0.0391
vt 0.3083 0.0391
vt 0.3081 0.0508
vt 0.1887 0.0146
vt 0.2186 0.0146
vt 0.1886 0.0249
vt 0.3083 0.0249
vt 0.3381 0.0249
vt 0.3979 0.0146
vt 0.3682 0.0146
vt 0.3381 0.0146
vt 0.3083 0.0146
vt 0.2783 0.0146
vt 0.8164 0.2471
vt 0.8467 0.2612
vt 0.8164 0.2612
vt 0.8467 0.2471
vt 0.8765 0.2612
vt 0.8765 0.2471
vt 0.7866 0.2612
vt 0.7563 0.2720
vt 0.9067 0.2612
vt 0.7866 0.2720
vt 0.8164 0.2720
vt 0.8462 0.2720
vt 0.8765 0.2720
vt 0.9067 0.2720
vt 0.9375 0.2720
vt 0.9375 0.2612
vt 0.9375 0.2471
vt 0.9375 0.2354
vt 0.9375 0.0508
vt 0.9663 0.0508
vt 0.9663 0.2354
vt 0.9663 0.2471
vt 0.9663 0.2612
vt 0.9663 0.2720
vt 0.3184 0.7688
vt 0.3169 0.7683
vt 0.4482 0.8408
vt 0.2241 0.7994
vt 0.2018 0.7310
vt 0.2600 0.6887
vt 0.2018 0.7688
vt 0.1008 0.8887
vt 0.0796 0.8597
vt 0.0779 0.9078
vt 0.0544 0.8758
vt 0.3149 0.5151
vt 0.3528 0.5273
vt 0.3076 0.5442
vt 0.3418 0.5552
vt 0.2959 0.7004
vt 0.2600 0.8110
vt 0.2125 0.9556
vt 0.1782 0.9446
vt 0.1674 0.9724
vt 0.2052 0.9846
vt 0.4421 0.5920
vt 0.4658 0.6240
vt 0.4407 0.6401
vt 0.4192 0.6111
vt 0.3184 0.7310
vt 0.3184 0.7688
vt 0.2959 0.7994
vt 0.3076 0.9556
vt 0.3418 0.9446
vt 0.3528 0.9724
vt 0.3149 0.9846
vt 0.4192 0.8887
vt 0.4404 0.8597
vt 0.4421 0.9078
vt 0.4656 0.8758
vt 0.3169 0.7683
vt 0.3184 0.7688
vt 0.4656 0.7876
vt 0.7866 0.7048
vt 0.7500 0.6929
vt 0.7979 0.5461
vt 0.8340 0.5581
vt 0.8022 0.5315
vt 0.8389 0.5432
vt 0.6973 0.5315
vt 0.7021 0.5461
vt 0.6611 0.5432
vt 0.6660 0.5581
vt 0.7134 0.7048
vt 0.7500 0.8173
vt 0.7866 0.8053
vt 0.8091 0.7358
vt 0.8091 0.7743
vt 0.9634 0.7742
vt 0.9634 0.7358
vt 0.9790 0.7358
vt 0.9790 0.7742
vt 0.9463 0.8741
vt 0.9238 0.9052
vt 0.9341 0.8650
vt 0.9111 0.8960
vt 0.8340 0.9521
vt 0.7974 0.9639
vt 0.8389 0.9669
vt 0.8022 0.9787
vt 0.5762 0.9052
vt 0.5532 0.8741
vt 0.5884 0.8960
vt 0.5659 0.8650
vt 0.6909 0.7743
vt 0.7134 0.8053
vt 0.6660 0.9521
vt 0.7021 0.9639
vt 0.6611 0.9669
vt 0.6973 0.9787
vt 0.5210 0.7742
vt 0.5210 0.7358
vt 0.5366 0.7742
vt 0.5366 0.7358
vt 0.6909 0.7358
vt 0.5884 0.6140
vt 0.5659 0.6453
vt 0.5762 0.6050
vt 0.5532 0.6360
vt 0.5005 0.7698
vt 0.4819 0.7899
vt 0.4707 0.7678
vt 0.9111 0.6140
vt 0.9341 0.6453
vt 0.9463 0.6360
vt 0.9238 0.6050
vt 0.3169 0.7314
vt 0.1285 0.0508
vt 0.0986 0.0391
vt 0.1285 0.0391
vt 0.0986 0.0508
vt 0.0684 0.0391
vt 0.0684 0.0508
vt 0.0377 0.0508
vt 0.0377 0.2354
vt 0.0377 0.0391
vt 0.0684 0.0249
vt 0.0986 0.0249
vt 0.1287 0.0249
vt 0.1587 0.0249
vt 0.1586 0.0391
vt 0.0377 0.0249
vt 0.1588 0.0146
vt 0.1288 0.0146
vt 0.0987 0.0146
vt 0.0684 0.0146
vt 0.0377 0.0146
vt 0.0090 0.0146
vt 0.0090 0.0249
vt 0.0090 0.0391
vt 0.0090 0.0508
vt 0.0090 0.2354
vt 0.0090 0.2471
vt 0.0377 0.2471
vt 0.0090 0.2612
vt 0.0377 0.2612
vt 0.0090 0.2720
vt 0.0377 0.2720
vt 0.0684 0.2612
vt 0.0684 0.2720
vt 0.0985 0.2612
vt 0.0684 0.2471
vt 0.0986 0.2471
vt 0.1287 0.2612
vt 0.1285 0.2471
vt 0.1587 0.2612
vt 0.1586 0.2471
vt 0.0986 0.2720
vt 0.1288 0.2720
vt 0.1588 0.2720
vt 0.1887 0.2720
vt 0.2186 0.2720
vt 0.1586 0.2354
vt 0.1285 0.2354
vt 0.0986 0.2354
vt 0.0684 0.2354
vt 0.6670 0.0508
vt 0.6372 0.0508
vt 0.6372 0.0391
vt 0.6670 0.0391
vt 0.5771 0.0391
vt 0.6069 0.0391
vt 0.6372 0.0249
vt 0.6670 0.0249
vt 0.6968 0.0391
vt 0.6968 0.0508
vt 0.7266 0.0391
vt 0.7568 0.0508
vt 0.7568 0.0391
vt 0.7266 0.0249
vt 0.6968 0.0249
vt 0.6968 0.0146
vt 0.7266 0.0146
vt 0.7563 0.0249
vt 0.7563 0.0146
vt 0.7866 0.0249
vt 0.7866 0.0146
vt 0.3169 0.7314
vt 0.3184 0.7310
vt 0.4482 0.6589
vt 0.5171 0.2354
vt 0.4875 0.2354
vt 0.4878 0.0508
vt 0.4658 0.6240
vt 0.4629 0.6511
vt 0.4407 0.6401
vt 0.1935 0.3813
vt 0.2244 0.3018
vt 0.2244 0.3813
vt 0.1936 0.3018
vt 0.1626 0.3813
vt 0.1627 0.3018
vt 0.1317 0.3813
vt 0.1317 0.3018
vt 0.1006 0.3018
vt 0.1009 0.3813
vt 0.0695 0.3018
vt 0.0701 0.3813
vt 0.0379 0.3018
vt 0.0379 0.3813
vt 0.0090 0.3013
vt 0.0090 0.3813
vt 0.2952 0.7017
vt 0.6855 0.3813
vt 0.6548 0.3813
vt 0.6855 0.3018
vt 0.6548 0.3018
vt 0.6240 0.3813
vt 0.6240 0.3018
vt 0.5933 0.3018
vt 0.5933 0.3813
vt 0.5625 0.3018
vt 0.5625 0.3813
vt 0.5317 0.3018
vt 0.5317 0.3813
vt 0.5010 0.3018
vt 0.5010 0.3813
vt 0.4702 0.3813
vt 0.4702 0.3018
vt 0.4395 0.3813
vt 0.4395 0.3018
vt 0.4089 0.3813
vt 0.4089 0.3018
vt 0.3782 0.3813
vt 0.3782 0.3018
vt 0.3474 0.3018
vt 0.3474 0.3813
vt 0.3167 0.3018
vt 0.3167 0.3813
vt 0.2859 0.3018
vt 0.2859 0.3813
vt 0.2551 0.3018
vt 0.2551 0.3813
vt 0.2952 0.7017
vt 0.2959 0.7004
vt 0.3591 0.5659
vt 0.9927 0.3813
vt 0.9634 0.3813
vt 0.9927 0.3013
vt 0.9634 0.3018
vt 0.9321 0.3813
vt 0.9321 0.3018
vt 0.9009 0.3813
vt 0.9009 0.3018
vt 0.8701 0.3813
vt 0.8701 0.3018
vt 0.8394 0.3018
vt 0.8394 0.3813
vt 0.8086 0.3018
vt 0.8086 0.3813
vt 0.7778 0.3018
vt 0.7778 0.3813
vt 0.7466 0.3018
vt 0.7471 0.3813
vt 0.7163 0.3813
vt 0.7163 0.3018
vt 0.5317 0.3018
vt 0.5010 0.3018
vt 0.5317 0.2812
vt 0.5010 0.2812
vt 0.4702 0.3018
vt 0.4702 0.2812
vt 0.4395 0.3018
vt 0.4395 0.2812
vt 0.4089 0.3018
vt 0.4089 0.2812
vt 0.3782 0.2812
vt 0.3782 0.3018
vt 0.3474 0.2812
vt 0.3474 0.3018
vt 0.3167 0.2812
vt 0.3167 0.3018
vt 0.2859 0.2812
vt 0.2859 0.3018
vt 0.2551 0.2812
vt 0.2551 0.3018
vt 0.2244 0.2812
vt 0.2244 0.3018
vt 0.1936 0.2812
vt 0.1936 0.3018
vt 0.1628 0.2812
vt 0.1627 0.3018
vt 0.1320 0.2812
vt 0.1317 0.3018
vt 0.1008 0.2812
vt 0.1006 0.3018
vt 0.0692 0.2812
vt 0.0695 0.3018
vt 0.0379 0.2812
vt 0.0379 0.3018
vt 0.0090 0.2812
vt 0.0090 0.3013
vt 0.3528 0.5273
vt 0.3665 0.5513
vt 0.3418 0.5552
vt 0.6855 0.3018
vt 0.6548 0.3018
vt 0.6851 0.2812
vt 0.6548 0.2812
vt 0.6240 0.3018
vt 0.6240 0.2812
vt 0.5933 0.3018
vt 0.5933 0.2812
vt 0.5625 0.3018
vt 0.5625 0.2812
vt 0.8394 0.3018
vt 0.8086 0.3018
vt 0.8394 0.2812
vt 0.8081 0.2812
vt 0.7778 0.3018
vt 0.7773 0.2812
vt 0.7466 0.3018
vt 0.7466 0.2812
vt 0.7163 0.3018
vt 0.7158 0.2812
vt 0.9927 0.3013
vt 0.9634 0.2812
vt 0.9927 0.2812
vt 0.9634 0.3018
vt 0.9321 0.2812
vt 0.9321 0.3018
vt 0.9009 0.2812
vt 0.9009 0.3018
vt 0.8701 0.3018
vt 0.8701 0.2812
vt 0.3782 0.4819
vt 0.3474 0.4819
vt 0.3782 0.4614
vt 0.3474 0.4614
vt 0.3167 0.4614
vt 0.3167 0.4819
vt 0.2859 0.4614
vt 0.2859 0.4819
vt 0.2551 0.4614
vt 0.2551 0.4819
vt 0.2244 0.4614
vt 0.2244 0.4819
vt 0.1936 0.4614
vt 0.1936 0.4819
vt 0.1627 0.4614
vt 0.1628 0.4819
vt 0.1317 0.4614
vt 0.1320 0.4819
vt 0.1006 0.4614
vt 0.1008 0.4819
vt 0.0695 0.4614
vt 0.0692 0.4819
vt 0.0379 0.4614
vt 0.0379 0.4819
vt 0.0090 0.4614
vt 0.0090 0.4819
vt 0.3076 0.5442
vt 0.2600 0.6887
vt 0.2871 0.5427
vt 0.2900 0.5266
vt 0.3149 0.5151
vt 0.5317 0.4819
vt 0.5010 0.4819
vt 0.5317 0.4614
vt 0.5010 0.4614
vt 0.4702 0.4819
vt 0.4702 0.4614
vt 0.4395 0.4819
vt 0.4395 0.4614
vt 0.4089 0.4819
vt 0.4089 0.4614
vt 0.6851 0.4819
vt 0.6548 0.4819
vt 0.6855 0.4614
vt 0.6548 0.4614
vt 0.6240 0.4819
vt 0.6240 0.4614
vt 0.5933 0.4819
vt 0.5933 0.4614
vt 0.5625 0.4819
vt 0.5625 0.4614
vt 0.8394 0.4819
vt 0.8086 0.4614
vt 0.8394 0.4614
vt 0.8081 0.4819
vt 0.7773 0.4819
vt 0.7778 0.4614
vt 0.7466 0.4819
vt 0.7466 0.4614
vt 0.7158 0.4819
vt 0.7163 0.4614
vt 0.9927 0.4614
vt 0.9927 0.4819
vt 0.9634 0.4614
vt 0.9634 0.4819
vt 0.9321 0.4614
vt 0.9321 0.4819
vt 0.9009 0.4614
vt 0.9009 0.4819
vt 0.8701 0.4614
vt 0.8701 0.4819
vt 0.0695 0.4614
vt 0.0379 0.4614
vt 0.0701 0.3813
vt 0.0379 0.3813
vt 0.0090 0.4614
vt 0.0090 0.3813
vt 0.2244 0.3813
vt 0.2244 0.4614
vt 0.1935 0.3813
vt 0.1936 0.4614
vt 0.1626 0.3813
vt 0.1627 0.4614
vt 0.1317 0.3813
vt 0.1317 0.4614
vt 0.1006 0.4614
vt 0.1009 0.3813
vt 0.3782 0.4614
vt 0.3474 0.4614
vt 0.3782 0.3813
vt 0.3474 0.3813
vt 0.3167 0.4614
vt 0.3167 0.3813
vt 0.2859 0.4614
vt 0.2859 0.3813
vt 0.2551 0.4614
vt 0.2551 0.3813
vt 0.5317 0.4614
vt 0.5010 0.4614
vt 0.5317 0.3813
vt 0.5010 0.3813
vt 0.4702 0.3813
vt 0.4702 0.4614
vt 0.4395 0.3813
vt 0.4395 0.4614
vt 0.4089 0.3813
vt 0.4089 0.4614
vt 0.6548 0.3813
vt 0.6855 0.3813
vt 0.6855 0.4614
vt 0.6548 0.4614
vt 0.6240 0.3813
vt 0.6240 0.4614
vt 0.5933 0.4614
vt 0.5933 0.3813
vt 0.5625 0.4614
vt 0.5625 0.3813
vt 0.8394 0.4614
vt 0.8086 0.4614
vt 0.8394 0.3813
vt 0.8086 0.3813
vt 0.7778 0.4614
vt 0.7778 0.3813
vt 0.7466 0.4614
vt 0.7471 0.3813
vt 0.7163 0.3813
vt 0.7163 0.4614
vt 0.9927 0.3813
vt 0.9927 0.4614
vt 0.9634 0.3813
vt 0.9634 0.4614
vt 0.9321 0.3813
vt 0.9321 0.4614
vt 0.9009 0.3813
vt 0.9009 0.4614
vt 0.8701 0.3813
vt 0.8701 0.4614
vt 0.5771 0.0249
vt 0.6069 0.0249
vt 0.6372 0.0146
vt 0.6670 0.0146
vt 0.5176 0.0146
vt 0.5474 0.0249
vt 0.5474 0.0146
vt 0.5771 0.0146
vt 0.6069 0.0146
vt 0.2600 0.6902
vt 0.0544 0.6240
vt 0.0779 0.5920
vt 0.0796 0.6401
vt 0.1008 0.6111
vt 0.2241 0.7004
vt 0.2125 0.5442
vt 0.1782 0.5552
vt 0.2052 0.5151
vt 0.1674 0.5273
vt 0.0197 0.7698
vt 0.0197 0.7300
vt 0.0495 0.7678
vt 0.0495 0.7319
vt 0.2600 0.6902
vt 0.2600 0.6887
vt 0.2329 0.5427
vt 0.4707 0.7678
vt 0.4707 0.7319
vt 0.5005 0.7300
vt 0.5005 0.7698
vt 0.2052 0.5151
vt 0.2301 0.5266
vt 0.2125 0.5442
vt 0.4629 0.8485
vt 0.4656 0.8758
vt 0.4404 0.8597
vt 0.4421 0.9078
vt 0.4153 0.9132
vt 0.4192 0.8887
vt 0.1782 0.5552
vt 0.2241 0.7004
vt 0.1609 0.5659
vt 0.1537 0.5513
vt 0.1674 0.5273
vt 0.2952 0.7982
vt 0.2250 0.7017
vt 0.2600 0.8094
vt 0.2250 0.7017
vt 0.2600 0.8094
vt 0.2031 0.7314
vt 0.2250 0.7982
vt 0.2031 0.7314
vt 0.2250 0.7982
vt 0.2031 0.7683
vt 0.2031 0.7683
vn -0.5877 0.8091 0.0000
vn 0.0002 -1.0000 -0.0000
vn -0.5877 -0.8091 -0.0000
vn 0.5877 -0.8091 0.0000
vn 0.5876 -0.8091 0.0000
vn -0.5879 0.8089 0.0000
vn -0.0002 -1.0000 -0.0000
vn -0.0002 1.0000 0.0000
vn -0.5879 -0.8089 -0.0000
vn 0.5877 0.8091 0.0000
vn -0.9511 -0.3089 -0.0000
vn 0.9510 0.3092 0.0000
vn -0.9510 0.3092 -0.0000
vn 0.9511 -0.3089 0.0000
vn 0.7730 0.6344 0.0000
vn 0.6341 0.5204 -0.5719
vn 0.7235 0.3867 -0.5719
vn 0.0000 -0.0000 -1.0000
vn 0.7850 0.2381 -0.5719
vn 0.8819 0.4714 0.0000
vn 0.7235 0.3867 0.5719
vn -0.9322 -0.0918 -0.3502
vn -0.8963 -0.2719 -0.3502
vn -0.8261 -0.4416 -0.3502
vn -0.7241 -0.5942 -0.3502
vn -0.5942 -0.7241 -0.3502
vn 0.3867 0.7235 -0.5719
vn 0.4714 0.8819 0.0000
vn 0.3867 0.7235 0.5719
vn 0.2381 0.7850 0.5719
vn -0.0000 0.0000 1.0000
vn 0.6344 0.7730 0.0000
vn 0.2903 0.9569 0.0000
vn 0.0804 0.8164 0.5719
vn -0.0918 -0.9322 0.3502
vn 0.0918 -0.9322 0.3502
vn 0.2719 -0.8964 0.3502
vn 0.2719 -0.8963 0.3502
vn 0.4415 -0.8261 0.3502
vn 0.5942 -0.7241 0.3502
vn -0.0980 0.9952 -0.0000
vn -0.0804 0.8164 0.5719
vn -0.3867 0.7235 0.5719
vn -0.5204 0.6341 0.5719
vn -0.6344 0.7730 -0.0000
vn -0.7730 0.6344 -0.0000
vn -0.6341 0.5204 0.5719
vn -0.7235 0.3867 0.5719
vn 0.7241 -0.5942 0.3502
vn 0.8261 -0.4415 0.3502
vn 0.8261 -0.4416 0.3502
vn 0.8963 -0.2719 0.3502
vn 0.9322 -0.0918 0.3502
vn 0.9322 0.0918 0.3502
vn -0.8164 -0.0804 0.5719
vn -0.7850 0.2381 0.5719
vn -0.8819 0.4714 -0.0000
vn -0.7235 0.3867 -0.5719
vn -0.7850 0.2381 -0.5719
vn 0.8261 0.4415 -0.3502
vn 0.8964 0.2719 -0.3502
vn 0.9322 0.0918 -0.3502
vn 0.9322 -0.0918 -0.3502
vn -0.8164 0.0804 -0.5719
vn -0.8164 -0.0804 -0.5719
vn -0.7850 -0.2381 -0.5719
vn -0.9569 -0.2903 -0.0000
vn -0.7850 -0.2381 0.5719
vn -0.8819 -0.4714 -0.0000
vn -0.7235 -0.3867 -0.5719
vn -0.4714 -0.8819 -0.0000
vn -0.6344 -0.7730 -0.0000
vn -0.5204 -0.6341 -0.5719
vn -0.6341 -0.5204 -0.5719
vn -0.7730 -0.6344 -0.0000
vn -0.6341 -0.5204 0.5719
vn -0.7235 -0.3867 0.5719
vn -0.5204 -0.6341 0.5719
vn -0.3867 -0.7235 0.5719
vn 0.7241 0.5942 0.3502
vn 0.8261 0.4415 0.3502
vn 0.8964 0.2719 0.3502
vn 0.5942 0.7241 0.3502
vn 0.4415 0.8261 0.3502
vn 0.2719 0.8963 0.3502
vn 0.2719 0.8964 0.3502
vn 0.0918 0.9322 0.3502
vn -0.0918 0.9322 0.3502
vn 0.2381 -0.7850 0.5719
vn 0.0804 -0.8164 0.5719
vn -0.2381 -0.7850 0.5719
vn -0.0804 -0.8164 0.5719
vn 0.0980 -0.9952 0.0000
vn 0.2903 -0.9569 0.0000
vn 0.4714 -0.8819 0.0000
vn 0.3867 -0.7235 -0.5719
vn 0.0918 0.9322 -0.3502
vn -0.0918 0.9322 -0.3502
vn 0.2381 -0.7850 -0.5719
vn 0.0804 -0.8164 -0.5719
vn -0.0804 -0.8164 -0.5719
vn -0.0980 -0.9952 0.0000
vn -0.2381 -0.7850 -0.5719
vn -0.2719 0.8964 -0.3502
vn -0.2719 0.8963 -0.3502
vn -0.2903 -0.9569 -0.0000
vn -0.3867 -0.7235 -0.5719
vn 0.7241 0.5942 -0.3502
vn 0.5942 0.7241 -0.3502
vn 0.4416 0.8261 -0.3502
vn 0.2719 0.8963 -0.3502
vn 0.6341 0.5204 0.5719
vn 0.5204 0.6341 0.5719
vn -0.2719 -0.8963 0.3502
vn 0.5204 0.6341 -0.5719
vn -0.4415 -0.8261 0.3502
vn -0.5942 -0.7241 0.3502
vn -0.7241 -0.5942 0.3502
vn -0.8261 -0.4416 0.3502
vn -0.8963 -0.2719 0.3502
vn 0.7850 0.2381 0.5719
vn 0.9569 0.2903 0.0000
vn 0.8164 0.0804 -0.5719
vn 0.9952 0.0980 0.0000
vn 0.8164 0.0804 0.5719
vn -0.9322 -0.0918 0.3502
vn 0.5879 -0.8089 0.0000
vn 0.2498 -0.1815 0.9511
vn -0.0954 0.2937 0.9511
vn 0.0954 -0.2937 0.9511
vn -0.2498 0.1815 0.9511
vn -0.0954 -0.2937 0.9511
vn -0.2498 -0.1815 0.9511
vn 0.0002 1.0000 0.0000
vn -0.0954 -0.2937 -0.9511
vn 0.0954 -0.2937 -0.9511
vn -0.3088 0.0000 -0.9511
vn -0.2498 0.1815 -0.9511
vn -0.0954 0.2937 -0.9511
vn 0.2498 0.1815 -0.9511
vn 0.0954 0.2937 -0.9511
vn 0.3088 0.0000 -0.9511
vn 0.2498 -0.1815 -0.9511
vn -0.2498 -0.1815 -0.9511
vn 0.6341 -0.5204 -0.5719
vn 0.7235 -0.3867 -0.5719
vn 0.9569 -0.2903 0.0000
vn 0.7850 -0.2381 -0.5719
vn 0.5204 -0.6341 -0.5719
vn -0.4415 0.8261 -0.3502
vn -0.5942 0.7241 -0.3502
vn -0.7241 0.5942 -0.3502
vn -0.8261 0.4415 -0.3502
vn -0.8261 0.4416 -0.3502
vn -0.8963 0.2719 -0.3502
vn -0.9322 0.0918 -0.3502
vn 0.8164 -0.0804 -0.5719
vn 0.9952 -0.0980 0.0000
vn 0.8164 -0.0804 0.5719
vn -0.9322 0.0918 0.3502
vn -0.8964 0.2719 0.3502
vn -0.8261 0.4416 0.3502
vn -0.8261 0.4415 0.3502
vn -0.7241 0.5942 0.3502
vn -0.5942 0.7241 0.3502
vn -0.4415 0.8261 0.3502
vn -0.2719 0.8963 0.3502
vn 0.3867 -0.7235 0.5719
vn 0.6344 -0.7730 0.0000
vn 0.7730 -0.6344 0.0000
vn 0.8819 -0.4714 0.0000
vn 0.5204 -0.6341 0.5719
vn 0.6341 -0.5204 0.5719
vn 0.7235 -0.3867 0.5719
vn 0.7850 -0.2381 0.5719
vn -0.2381 0.7850 0.5719
vn -0.2903 0.9569 -0.0000
vn -0.4714 0.8819 -0.0000
vn -0.5204 0.6341 -0.5719
vn -0.3867 0.7235 -0.5719
vn -0.6341 0.5204 -0.5719
vn -0.2381 0.7850 -0.5719
vn -0.0804 0.8164 -0.5719
vn 0.0804 0.8164 -0.5719
vn 0.0918 -0.9322 -0.3502
vn -0.0918 -0.9322 -0.3502
vn 0.2381 0.7850 -0.5719
vn 0.0980 0.9952 -0.0000
vn -0.2719 -0.8964 -0.3502
vn -0.4415 -0.8261 -0.3502
vn -0.2719 -0.8963 -0.3502
vn 0.5879 0.8089 0.0000
vn -0.9569 0.2903 -0.0000
vn -0.8164 0.0804 0.5719
vn -0.9952 -0.0980 -0.0000
vn -0.9952 0.0980 -0.0000
vn -0.2896 -0.9547 0.0686
vn -0.4703 -0.8798 0.0686
vn -0.6329 -0.7712 0.0686
vn -0.7712 -0.6329 0.0686
vn -0.8798 -0.4703 0.0686
vn -0.9547 -0.2896 0.0686
vn -0.9928 -0.0978 0.0686
vn 0.4703 0.8798 0.0686
vn 0.6329 0.7712 0.0686
vn 0.7712 0.6329 0.0686
vn 0.8798 0.4703 0.0686
vn 0.9547 0.2896 0.0686
vn 0.9928 0.0978 0.0686
vn 0.9928 -0.0978 0.0686
vn 0.9547 -0.2896 0.0686
vn 0.8798 -0.4703 0.0686
vn 0.7712 -0.6329 0.0686
vn 0.6329 -0.7712 0.0686
vn 0.4703 -0.8798 0.0686
vn 0.2896 -0.9547 0.0686
vn 0.0978 -0.9928 0.0686
vn -0.0978 -0.9928 0.0686
vn 0.9511 0.3089 0.0000
vn -0.9928 0.0978 0.0686
vn -0.9547 0.2896 0.0686
vn -0.8798 0.4703 0.0686
vn -0.7712 0.6329 0.0686
vn -0.6329 0.7712 0.0686
vn -0.4703 0.8798 0.0686
vn -0.2896 0.9547 0.0686
vn -0.0978 0.9928 0.0686
vn 0.0978 0.9928 0.0686
vn 0.2896 0.9547 0.0686
vn 0.6310 0.0622 0.7733
vn 0.6310 0.0621 0.7733
vn 0.6310 -0.0621 0.7733
vn 0.6067 -0.1841 0.7733
vn 0.5592 -0.2989 0.7733
vn 0.4901 -0.4022 0.7733
vn 0.4022 -0.4901 0.7733
vn 0.2989 -0.5592 0.7733
vn 0.1841 -0.6067 0.7733
vn 0.1840 -0.6067 0.7733
vn 0.0621 -0.6310 0.7733
vn -0.0621 -0.6310 0.7733
vn -0.0622 -0.6310 0.7733
vn -0.1841 -0.6067 0.7733
vn -0.2989 -0.5592 0.7733
vn -0.2989 -0.5591 0.7733
vn -0.4022 -0.4901 0.7733
vn -0.4901 -0.4022 0.7733
vn -0.5591 -0.2989 0.7733
vn -0.6067 -0.1840 0.7733
vn -0.6309 -0.0621 0.7733
vn 0.2989 0.5592 0.7733
vn 0.4022 0.4901 0.7733
vn 0.4901 0.4022 0.7733
vn 0.5592 0.2989 0.7733
vn 0.6067 0.1841 0.7733
vn -0.2989 0.5591 0.7733
vn -0.1840 0.6067 0.7733
vn -0.0622 0.6310 0.7733
vn -0.0621 0.6310 0.7733
vn 0.0621 0.6310 0.7733
vn 0.1840 0.6067 0.7733
vn -0.6309 0.0621 0.7733
vn -0.6067 0.1840 0.7733
vn -0.5591 0.2989 0.7733
vn -0.4901 0.4022 0.7733
vn -0.4022 0.4901 0.7733
vn 0.4022 -0.4901 -0.7733
vn 0.2989 -0.5591 -0.7733
vn 0.1840 -0.6067 -0.7733
vn 0.0622 -0.6310 -0.7733
vn 0.0621 -0.6310 -0.7733
vn -0.0621 -0.6310 -0.7733
vn -0.1840 -0.6067 -0.7733
vn -0.2989 -0.5592 -0.7733
vn -0.4022 -0.4901 -0.7733
vn -0.4901 -0.4022 -0.7733
vn -0.5592 -0.2989 -0.7733
vn -0.6067 -0.1841 -0.7733
vn -0.6310 -0.0622 -0.7733
vn -0.6310 -0.0621 -0.7733
vn -0.9510 -0.3092 -0.0000
vn 0.6309 0.0621 -0.7733
vn 0.6309 -0.0621 -0.7733
vn 0.6067 -0.1840 -0.7733
vn 0.5591 -0.2989 -0.7733
vn 0.4901 -0.4022 -0.7733
vn 0.2989 0.5592 -0.7733
vn 0.4022 0.4901 -0.7733
vn 0.4901 0.4022 -0.7733
vn 0.5591 0.2989 -0.7733
vn 0.6067 0.1840 -0.7733
vn -0.2989 0.5592 -0.7733
vn -0.1841 0.6067 -0.7733
vn -0.1840 0.6067 -0.7733
vn -0.0621 0.6310 -0.7733
vn 0.0621 0.6310 -0.7733
vn 0.0622 0.6310 -0.7733
vn 0.1841 0.6067 -0.7733
vn -0.6310 0.0621 -0.7733
vn -0.6067 0.1841 -0.7733
vn -0.5592 0.2989 -0.7733
vn -0.4901 0.4022 -0.7733
vn -0.4022 0.4901 -0.7733
vn -0.9547 -0.2896 -0.0686
vn -0.9928 -0.0978 -0.0686
vn -0.2896 -0.9547 -0.0686
vn -0.4703 -0.8798 -0.0686
vn -0.6329 -0.7712 -0.0686
vn -0.7712 -0.6329 -0.0686
vn -0.8798 -0.4703 -0.0686
vn 0.6329 -0.7712 -0.0686
vn 0.4703 -0.8798 -0.0686
vn 0.2896 -0.9547 -0.0686
vn 0.0978 -0.9928 -0.0686
vn -0.0978 -0.9928 -0.0686
vn 0.9928 0.0978 -0.0686
vn 0.9928 -0.0978 -0.0686
vn 0.9547 -0.2896 -0.0686
vn 0.8798 -0.4703 -0.0686
vn 0.7712 -0.6329 -0.0686
vn 0.4703 0.8798 -0.0686
vn 0.6329 0.7712 -0.0686
vn 0.7712 0.6329 -0.0686
vn 0.8798 0.4703 -0.0686
vn 0.9547 0.2896 -0.0686
vn -0.4703 0.8798 -0.0686
vn -0.2896 0.9547 -0.0686
vn -0.0978 0.9928 -0.0686
vn 0.0978 0.9928 -0.0686
vn 0.2896 0.9547 -0.0686
vn -0.9928 0.0978 -0.0686
vn -0.9547 0.2896 -0.0686
vn -0.8798 0.4703 -0.0686
vn -0.7712 0.6329 -0.0686
vn -0.6329 0.7712 -0.0686
vn 0.5942 -0.7241 -0.3502
vn 0.4415 -0.8261 -0.3502
vn 0.2719 -0.8963 -0.3502
vn 0.2719 -0.8964 -0.3502
vn 0.8963 -0.2719 -0.3502
vn 0.8261 -0.4415 -0.3502
vn 0.8261 -0.4416 -0.3502
vn 0.7241 -0.5942 -0.3502
vn 0.2498 0.1815 0.9511
vn 0.0954 0.2937 0.9511
vn 0.3088 -0.0000 0.9511
vn 0.9510 -0.3092 0.0000
vn -0.3088 -0.0000 0.9511
vn -0.9511 0.3089 -0.0000
usemtl pskmat0.007
s off
f 490/1/1 489/2/1 487/3/1
f 588/4/2 590/5/2 589/6/2
f 592/7/2 590/5/2 588/4/2
f 592/7/2 591/8/2 590/5/2
f 576/9/3 578/10/3 577/11/3
f 580/12/3 578/10/3 576/9/3
f 580/12/3 579/13/3 578/10/3
f 546/14/4 548/15/4 549/16/4
f 548/15/4 546/14/4 545/17/4
f 547/18/5 545/17/5 546/14/5
f 539/19/6 542/20/6 540/21/6
f 539/19/6 543/22/6 542/20/6
f 544/23/6 542/20/6 543/22/6
f 534/24/7 536/25/7 537/26/7
f 536/25/7 534/24/7 533/27/7
f 535/28/7 533/27/7 534/24/7
f 527/29/8 530/30/8 528/31/8
f 527/29/8 531/32/8 530/30/8
f 532/33/8 530/30/8 531/32/8
f 522/34/9 524/35/9 525/36/9
f 524/35/9 522/34/9 521/37/9
f 523/38/9 521/37/9 522/34/9
f 515/39/10 518/40/10 516/41/10
f 515/39/10 519/42/10 518/40/10
f 520/43/10 518/40/10 519/42/10
f 510/44/11 512/45/11 513/46/11
f 512/45/11 510/44/11 509/47/11
f 511/48/11 509/47/11 510/44/11
f 504/49/12 506/50/12 505/51/12
f 504/49/12 507/52/12 506/50/12
f 506/50/12 507/52/12 508/53/12
f 498/54/13 500/55/13 501/56/13
f 500/55/13 498/54/13 497/57/13
f 499/58/13 497/57/13 498/54/13
f 492/59/14 494/60/14 493/61/14
f 492/59/14 495/62/14 494/60/14
f 494/60/14 495/62/14 496/63/14
f 57/64/15 60/65/15 59/66/15
f 60/65/16 57/64/16 124/67/16
f 122/68/16 124/67/16 57/64/16
f 124/67/17 125/69/17 60/65/17
f 124/67/18 121/70/18 123/71/18
f 124/67/18 123/71/18 125/69/18
f 126/72/18 125/69/18 123/71/18
f 126/72/18 127/73/18 125/69/18
f 128/74/18 125/69/18 127/73/18
f 125/69/19 128/74/19 62/75/19
f 62/75/17 60/65/17 125/69/17
f 60/65/20 62/75/20 61/76/20
f 61/76/20 59/66/20 60/65/20
f 134/77/21 59/66/21 61/76/21
f 66/78/18 68/79/18 127/73/18
f 66/78/22 127/73/22 193/80/22
f 224/81/22 193/80/22 127/73/22
f 127/73/23 126/72/23 224/81/23
f 223/82/23 224/81/23 126/72/23
f 126/72/24 123/71/24 223/82/24
f 222/83/24 223/82/24 123/71/24
f 123/71/25 121/70/25 222/83/25
f 221/84/25 222/83/25 121/70/25
f 121/70/26 220/85/26 221/84/26
f 119/86/26 220/85/26 121/70/26
f 119/86/18 121/70/18 120/87/18
f 120/87/18 117/88/18 119/86/18
f 55/89/27 117/88/27 120/87/27
f 117/88/27 55/89/27 53/90/27
f 53/90/28 55/89/28 56/91/28
f 54/92/28 53/90/28 56/91/28
f 54/92/29 56/91/29 142/93/29
f 142/93/30 144/94/30 54/92/30
f 144/94/31 142/93/31 143/95/31
f 56/91/32 55/89/32 58/96/32
f 54/92/33 52/97/33 53/90/33
f 52/97/30 54/92/30 144/94/30
f 144/94/34 146/98/34 52/97/34
f 146/98/31 144/94/31 145/99/31
f 145/99/31 147/100/31 146/98/31
f 50/101/34 52/97/34 146/98/34
f 143/95/31 145/99/31 144/94/31
f 145/99/35 143/95/35 233/102/35
f 233/102/36 147/100/36 145/99/36
f 234/103/36 147/100/36 233/102/36
f 234/103/37 149/104/37 147/100/37
f 235/105/38 149/104/38 234/103/38
f 235/105/39 152/106/39 149/104/39
f 236/107/39 152/106/39 235/105/39
f 236/107/40 154/108/40 152/106/40
f 154/108/40 236/107/40 237/109/40
f 50/101/41 48/110/41 49/111/41
f 146/98/42 48/110/42 50/101/42
f 148/112/42 48/110/42 146/98/42
f 148/112/31 146/98/31 147/100/31
f 147/100/31 149/104/31 148/112/31
f 150/113/31 148/112/31 149/104/31
f 150/113/31 149/104/31 151/114/31
f 44/115/43 150/113/43 151/114/43
f 151/114/44 41/116/44 44/115/44
f 41/116/45 42/117/45 44/115/45
f 150/113/43 44/115/43 46/118/43
f 39/119/46 40/120/46 41/116/46
f 39/119/47 41/116/47 156/121/47
f 153/122/47 156/121/47 41/116/47
f 41/116/44 151/114/44 153/122/44
f 156/121/48 158/123/48 39/119/48
f 158/123/31 156/121/31 157/124/31
f 155/125/31 157/124/31 156/121/31
f 156/121/31 153/122/31 155/125/31
f 154/108/31 155/125/31 153/122/31
f 154/108/31 153/122/31 152/106/31
f 151/114/31 152/106/31 153/122/31
f 152/106/31 151/114/31 149/104/31
f 157/124/31 159/126/31 158/123/31
f 237/109/49 238/127/49 154/108/49
f 155/125/49 154/108/49 238/127/49
f 238/127/50 239/128/50 155/125/50
f 157/124/51 155/125/51 239/128/51
f 239/128/52 240/129/52 157/124/52
f 159/126/52 157/124/52 240/129/52
f 240/129/53 241/130/53 159/126/53
f 161/131/53 159/126/53 241/130/53
f 161/131/54 241/130/54 163/132/54
f 161/131/31 163/132/31 164/133/31
f 164/133/55 32/134/55 162/135/55
f 161/131/31 164/133/31 162/135/31
f 162/135/31 159/126/31 161/131/31
f 159/126/31 162/135/31 160/136/31
f 160/136/31 158/123/31 159/126/31
f 158/123/56 160/136/56 37/137/56
f 37/137/48 39/119/48 158/123/48
f 37/137/57 38/138/57 39/119/57
f 40/120/57 39/119/57 38/138/57
f 38/138/58 102/139/58 40/120/58
f 100/140/18 99/141/18 102/139/18
f 102/139/59 38/138/59 100/140/59
f 93/142/60 91/143/60 207/144/60
f 207/144/61 208/145/61 93/142/61
f 96/146/61 93/142/61 208/145/61
f 208/145/62 209/147/62 96/146/62
f 97/148/62 96/146/62 209/147/62
f 209/147/63 99/141/63 97/148/63
f 97/148/18 99/141/18 98/149/18
f 100/140/18 98/149/18 99/141/18
f 100/140/64 35/150/64 98/149/64
f 35/150/59 100/140/59 38/138/59
f 95/151/18 93/142/18 96/146/18
f 96/146/18 97/148/18 95/151/18
f 98/149/18 95/151/18 97/148/18
f 95/151/65 98/149/65 31/152/65
f 90/153/18 91/143/18 89/154/18
f 92/155/18 89/154/18 91/143/18
f 91/143/18 93/142/18 92/155/18
f 94/156/18 92/155/18 93/142/18
f 93/142/18 95/151/18 94/156/18
f 94/156/66 95/151/66 29/157/66
f 31/152/66 29/157/66 95/151/66
f 29/157/67 31/152/67 30/158/67
f 32/134/67 30/158/67 31/152/67
f 32/134/68 164/133/68 30/158/68
f 30/158/69 28/159/69 29/157/69
f 27/160/69 29/157/69 28/159/69
f 29/157/70 27/160/70 94/156/70
f 92/155/70 94/156/70 27/160/70
f 24/161/71 21/162/71 23/163/71
f 23/163/72 25/164/72 24/161/72
f 87/165/73 25/164/73 23/163/73
f 89/154/73 25/164/73 87/165/73
f 89/154/74 92/155/74 25/164/74
f 27/160/74 25/164/74 92/155/74
f 25/164/75 27/160/75 26/166/75
f 28/159/75 26/166/75 27/160/75
f 168/167/76 26/166/76 28/159/76
f 168/167/77 28/159/77 166/168/77
f 30/158/77 166/168/77 28/159/77
f 166/168/68 30/158/68 164/133/68
f 26/166/72 24/161/72 25/164/72
f 163/132/31 165/169/31 164/133/31
f 166/168/31 164/133/31 165/169/31
f 165/169/31 167/170/31 166/168/31
f 168/167/31 166/168/31 167/170/31
f 168/167/31 167/170/31 169/171/31
f 169/171/76 26/166/76 168/167/76
f 169/171/78 172/172/78 26/166/78
f 24/161/78 26/166/78 172/172/78
f 172/172/79 174/173/79 24/161/79
f 21/162/79 24/161/79 174/173/79
f 170/174/31 169/171/31 167/170/31
f 167/170/80 244/175/80 170/174/80
f 244/175/81 167/170/81 243/176/81
f 165/169/81 243/176/81 167/170/81
f 243/176/82 165/169/82 242/177/82
f 163/132/82 242/177/82 165/169/82
f 242/177/54 163/132/54 241/130/54
f 245/178/80 170/174/80 244/175/80
f 245/178/83 246/179/83 170/174/83
f 171/180/83 170/174/83 246/179/83
f 246/179/84 247/181/84 171/180/84
f 173/182/84 171/180/84 247/181/84
f 247/181/85 248/183/85 173/182/85
f 175/184/86 173/182/86 248/183/86
f 248/183/87 249/185/87 175/184/87
f 177/186/88 249/185/88 179/187/88
f 177/186/87 175/184/87 249/185/87
f 178/188/31 175/184/31 177/186/31
f 176/189/31 175/184/31 178/188/31
f 176/189/31 174/173/31 175/184/31
f 173/182/31 175/184/31 174/173/31
f 174/173/31 172/172/31 173/182/31
f 171/180/31 173/182/31 172/172/31
f 172/172/31 169/171/31 171/180/31
f 170/174/31 171/180/31 169/171/31
f 13/190/89 180/191/89 182/192/89
f 16/193/89 180/191/89 13/190/89
f 180/191/90 16/193/90 178/188/90
f 178/188/31 177/186/31 180/191/31
f 180/191/31 177/186/31 179/187/31
f 180/191/31 179/187/31 182/192/31
f 182/192/31 179/187/31 181/194/31
f 174/173/91 176/189/91 21/162/91
f 20/195/91 21/162/91 176/189/91
f 176/189/92 178/188/92 20/195/92
f 17/196/92 20/195/92 178/188/92
f 17/196/90 178/188/90 16/193/90
f 16/193/93 15/197/93 17/196/93
f 16/193/94 13/190/94 15/197/94
f 14/198/94 15/197/94 13/190/94
f 14/198/95 13/190/95 11/199/95
f 14/198/96 11/199/96 78/200/96
f 18/201/93 17/196/93 15/197/93
f 201/202/97 83/203/97 81/204/97
f 81/204/98 79/205/98 201/202/98
f 79/205/18 81/204/18 80/206/18
f 80/206/18 78/200/18 79/205/18
f 78/200/99 80/206/99 14/198/99
f 15/197/99 14/198/99 80/206/99
f 80/206/100 82/207/100 15/197/100
f 18/201/100 15/197/100 82/207/100
f 82/207/101 19/208/101 18/201/101
f 18/201/102 19/208/102 17/196/102
f 82/207/18 80/206/18 81/204/18
f 81/204/18 83/203/18 82/207/18
f 84/209/18 82/207/18 83/203/18
f 84/209/18 83/203/18 85/210/18
f 85/210/103 22/211/103 84/209/103
f 84/209/103 22/211/103 19/208/103
f 84/209/101 19/208/101 82/207/101
f 199/212/104 200/213/104 77/214/104
f 79/205/105 77/214/105 200/213/105
f 200/213/98 201/202/98 79/205/98
f 77/214/18 79/205/18 78/200/18
f 86/215/18 85/210/18 83/203/18
f 20/195/102 17/196/102 19/208/102
f 21/162/106 20/195/106 19/208/106
f 22/211/106 21/162/106 19/208/106
f 22/211/71 23/163/71 21/162/71
f 85/210/107 23/163/107 22/211/107
f 87/165/107 23/163/107 85/210/107
f 85/210/18 86/215/18 87/165/18
f 88/216/18 87/165/18 86/215/18
f 87/165/18 88/216/18 89/154/18
f 90/153/18 89/154/18 88/216/18
f 206/217/60 207/144/60 91/143/60
f 91/143/108 90/153/108 206/217/108
f 205/218/108 206/217/108 90/153/108
f 90/153/109 204/219/109 205/218/109
f 204/219/109 90/153/109 88/216/109
f 204/219/110 88/216/110 203/220/110
f 203/220/110 88/216/110 86/215/110
f 203/220/111 86/215/111 202/221/111
f 202/221/111 86/215/111 83/203/111
f 202/221/97 83/203/97 201/202/97
f 140/222/31 137/223/31 139/224/31
f 137/223/31 140/222/31 138/225/31
f 138/225/31 135/226/31 137/223/31
f 136/227/31 135/226/31 138/225/31
f 58/96/112 136/227/112 138/225/112
f 138/225/113 140/222/113 58/96/113
f 56/91/113 58/96/113 140/222/113
f 140/222/29 142/93/29 56/91/29
f 139/224/31 142/93/31 140/222/31
f 142/93/31 139/224/31 141/228/31
f 141/228/31 143/95/31 142/93/31
f 143/95/114 141/228/114 232/229/114
f 232/229/35 233/102/35 143/95/35
f 133/230/31 135/226/31 134/77/31
f 136/227/31 134/77/31 135/226/31
f 59/66/21 134/77/21 136/227/21
f 58/96/112 59/66/112 136/227/112
f 59/66/15 58/96/15 57/64/15
f 55/89/32 57/64/32 58/96/32
f 120/87/115 57/64/115 55/89/115
f 57/64/115 120/87/115 122/68/115
f 122/68/18 120/87/18 121/70/18
f 122/68/18 121/70/18 124/67/18
f 231/231/114 232/229/114 141/228/114
f 141/228/116 139/224/116 231/231/116
f 230/232/116 231/231/116 139/224/116
f 139/224/117 137/223/117 230/232/117
f 229/233/117 230/232/117 137/223/117
f 137/223/118 228/234/118 229/233/118
f 228/234/118 137/223/118 135/226/118
f 135/226/119 227/235/119 228/234/119
f 227/235/119 135/226/119 133/230/119
f 133/230/120 226/236/120 227/235/120
f 226/236/120 133/230/120 130/237/120
f 134/77/31 130/237/31 133/230/31
f 131/238/31 130/237/31 134/77/31
f 61/76/121 131/238/121 134/77/121
f 131/238/121 61/76/121 63/239/121
f 63/239/122 61/76/122 62/75/122
f 62/75/122 64/240/122 63/239/122
f 64/240/19 62/75/19 128/74/19
f 128/74/123 68/79/123 64/240/123
f 128/74/18 127/73/18 68/79/18
f 2/241/123 64/240/123 68/79/123
f 64/240/124 2/241/124 63/239/124
f 1/242/124 63/239/124 2/241/124
f 129/243/125 63/239/125 1/242/125
f 63/239/125 129/243/125 131/238/125
f 131/238/31 129/243/31 130/237/31
f 132/244/31 130/237/31 129/243/31
f 225/245/126 130/237/126 132/244/126
f 130/237/126 225/245/126 226/236/126
f 600/246/127 599/247/127 484/248/127
f 603/249/31 601/250/31 602/251/31
f 610/252/31 601/250/31 603/249/31
f 603/249/128 626/253/128 610/252/128
f 625/254/128 610/252/128 626/253/128
f 627/255/31 625/254/31 626/253/31
f 628/256/31 625/254/31 627/255/31
f 644/257/31 642/258/31 641/259/31
f 643/260/31 641/259/31 642/258/31
f 643/260/129 602/251/129 641/259/129
f 606/261/129 602/251/129 643/260/129
f 602/251/31 606/261/31 603/249/31
f 608/262/31 603/249/31 606/261/31
f 608/262/130 622/263/130 603/249/130
f 624/264/130 603/249/130 622/263/130
f 624/264/31 622/263/31 621/265/31
f 623/266/31 621/265/31 622/263/31
f 647/267/31 645/268/31 646/269/31
f 648/270/31 647/267/31 646/269/31
f 646/269/131 607/271/131 648/270/131
f 606/261/131 648/270/131 607/271/131
f 607/271/31 605/272/31 606/261/31
f 605/272/31 608/262/31 606/261/31
f 609/273/31 608/262/31 605/272/31
f 608/262/132 609/273/132 619/274/132
f 619/274/132 609/273/132 620/275/132
f 620/275/31 617/276/31 619/274/31
f 619/274/31 617/276/31 618/277/31
f 609/273/133 605/272/133 615/278/133
f 613/279/133 615/278/133 605/272/133
f 615/278/31 613/279/31 614/280/31
f 616/281/31 614/280/31 613/279/31
f 598/282/134 597/283/134 595/284/134
f 450/285/135 455/286/135 476/287/135
f 476/287/135 475/288/135 450/285/135
f 476/287/18 663/289/18 475/288/18
f 664/290/18 475/288/18 663/289/18
f 666/291/18 478/292/18 665/293/18
f 477/294/18 665/293/18 478/292/18
f 478/292/136 455/286/136 477/294/136
f 452/295/136 477/294/136 455/286/136
f 452/295/18 455/286/18 456/296/18
f 455/286/18 450/285/18 456/296/18
f 449/297/18 456/296/18 450/285/18
f 451/298/18 449/297/18 450/285/18
f 457/299/18 449/297/18 451/298/18
f 457/299/137 451/298/137 471/300/137
f 472/301/137 471/300/137 451/298/137
f 472/301/18 659/302/18 471/300/18
f 660/303/18 471/300/18 659/302/18
f 658/304/18 657/305/18 470/306/18
f 469/307/18 470/306/18 657/305/18
f 470/306/138 469/307/138 457/299/138
f 449/297/138 457/299/138 469/307/138
f 456/296/139 449/297/139 468/308/139
f 468/308/139 467/309/139 456/296/139
f 468/308/18 655/310/18 467/309/18
f 656/311/18 467/309/18 655/310/18
f 652/312/18 651/313/18 463/314/18
f 464/315/18 463/314/18 651/313/18
f 464/315/140 453/316/140 463/314/140
f 453/316/140 458/317/140 463/314/140
f 458/317/18 453/316/18 452/295/18
f 456/296/18 458/317/18 452/295/18
f 458/317/141 456/296/141 465/318/141
f 466/319/141 465/318/141 456/296/141
f 653/320/18 465/318/18 466/319/18
f 654/321/18 653/320/18 466/319/18
f 462/322/18 461/323/18 459/324/18
f 460/325/18 459/324/18 461/323/18
f 460/325/142 454/326/142 459/324/142
f 453/316/142 459/324/142 454/326/142
f 454/326/18 452/295/18 453/316/18
f 452/295/143 454/326/143 479/327/143
f 480/328/143 479/327/143 454/326/143
f 667/329/18 479/327/18 480/328/18
f 480/328/18 668/330/18 667/329/18
f 596/331/134 594/332/134 593/333/134
f 595/284/134 593/333/134 594/332/134
f 593/333/134 595/284/134 597/283/134
f 450/285/144 474/334/144 451/298/144
f 474/334/144 473/335/144 451/298/144
f 661/336/18 473/335/18 474/334/18
f 474/334/18 662/337/18 661/336/18
f 589/6/2 587/338/2 588/4/2
f 9/339/145 72/340/145 74/341/145
f 72/340/145 9/339/145 7/342/145
f 7/342/146 70/343/146 72/340/146
f 70/343/146 7/342/146 5/344/146
f 4/345/147 5/344/147 3/346/147
f 65/347/148 5/344/148 4/345/148
f 5/344/148 65/347/148 70/343/148
f 70/343/18 65/347/18 69/348/18
f 69/348/18 71/349/18 70/343/18
f 72/340/18 70/343/18 71/349/18
f 71/349/18 73/350/18 72/340/18
f 74/341/18 72/340/18 73/350/18
f 73/350/18 75/351/18 74/341/18
f 76/352/18 74/341/18 75/351/18
f 74/341/149 76/352/149 9/339/149
f 11/199/149 9/339/149 76/352/149
f 67/353/18 69/348/18 65/347/18
f 76/352/96 78/200/96 11/199/96
f 78/200/18 76/352/18 77/214/18
f 75/351/18 77/214/18 76/352/18
f 77/214/150 75/351/150 199/212/150
f 198/354/150 199/212/150 75/351/150
f 75/351/151 73/350/151 198/354/151
f 197/355/151 198/354/151 73/350/151
f 197/355/152 73/350/152 196/356/152
f 71/349/152 196/356/152 73/350/152
f 196/356/153 71/349/153 195/357/153
f 69/348/154 195/357/154 71/349/154
f 195/357/155 69/348/155 194/358/155
f 67/353/155 194/358/155 69/348/155
f 194/358/156 67/353/156 193/359/156
f 66/360/156 193/359/156 67/353/156
f 67/353/18 65/347/18 66/360/18
f 68/361/18 66/360/18 65/347/18
f 4/345/157 68/361/157 65/347/157
f 68/361/157 4/345/157 2/362/157
f 2/362/158 4/345/158 3/346/158
f 3/346/158 1/363/158 2/362/158
f 1/363/159 3/346/159 129/364/159
f 191/365/159 129/364/159 3/346/159
f 129/364/31 191/365/31 132/366/31
f 192/367/31 132/366/31 191/365/31
f 132/366/160 192/367/160 225/368/160
f 256/369/160 225/368/160 192/367/160
f 192/367/161 190/370/161 256/369/161
f 255/371/161 256/369/161 190/370/161
f 190/370/162 188/372/162 255/371/162
f 192/367/31 191/365/31 190/370/31
f 189/373/31 190/370/31 191/365/31
f 190/370/31 189/373/31 188/372/31
f 187/374/31 188/372/31 189/373/31
f 188/372/31 187/374/31 186/375/31
f 186/375/31 187/374/31 185/376/31
f 186/375/31 185/376/31 183/377/31
f 183/377/31 185/376/31 184/378/31
f 184/378/31 181/194/31 183/377/31
f 181/194/31 184/378/31 182/192/31
f 254/379/163 255/371/163 188/372/163
f 188/372/164 186/375/164 254/379/164
f 253/380/164 254/379/164 186/375/164
f 186/375/165 252/381/165 253/380/165
f 183/377/165 252/381/165 186/375/165
f 183/377/166 251/382/166 252/381/166
f 181/194/166 251/382/166 183/377/166
f 181/194/167 250/383/167 251/382/167
f 179/187/167 250/383/167 181/194/167
f 179/187/88 249/185/88 250/383/88
f 12/384/168 182/192/168 184/378/168
f 13/190/168 182/192/168 12/384/168
f 12/384/95 11/199/95 13/190/95
f 12/384/169 10/385/169 11/199/169
f 9/339/169 11/199/169 10/385/169
f 10/385/170 8/386/170 9/339/170
f 7/342/170 9/339/170 8/386/170
f 8/386/171 6/387/171 7/342/171
f 5/344/171 7/342/171 6/387/171
f 6/387/147 3/346/147 5/344/147
f 12/384/172 184/378/172 10/385/172
f 10/385/172 184/378/172 185/376/172
f 185/376/173 187/374/173 10/385/173
f 8/386/173 10/385/173 187/374/173
f 187/374/174 189/373/174 8/386/174
f 6/387/174 8/386/174 189/373/174
f 189/373/175 191/365/175 6/387/175
f 3/346/175 6/387/175 191/365/175
f 46/118/176 148/112/176 150/113/176
f 148/112/176 46/118/176 48/110/176
f 46/118/177 45/388/177 48/110/177
f 46/118/178 44/115/178 45/388/178
f 43/389/178 45/388/178 44/115/178
f 42/117/45 43/389/45 44/115/45
f 43/389/179 42/117/179 108/390/179
f 108/390/180 110/391/180 43/389/180
f 45/388/180 43/389/180 110/391/180
f 42/117/46 41/116/46 40/120/46
f 40/120/181 104/392/181 42/117/181
f 42/117/181 104/392/181 105/393/181
f 105/393/179 108/390/179 42/117/179
f 108/390/18 105/393/18 107/394/18
f 107/394/18 109/395/18 108/390/18
f 110/391/18 108/390/18 109/395/18
f 110/391/18 109/395/18 111/396/18
f 110/391/182 111/396/182 45/388/182
f 47/397/182 45/388/182 111/396/182
f 111/396/183 113/398/183 47/397/183
f 45/388/177 47/397/177 48/110/177
f 47/397/41 49/111/41 48/110/41
f 49/111/183 47/397/183 113/398/183
f 49/111/184 113/398/184 51/399/184
f 51/399/184 113/398/184 115/400/184
f 114/401/18 115/400/18 113/398/18
f 114/401/18 113/398/18 112/402/18
f 112/402/18 113/398/18 111/396/18
f 112/402/18 111/396/18 109/395/18
f 216/403/185 217/404/185 112/402/185
f 114/401/185 112/402/185 217/404/185
f 114/401/186 217/404/186 116/405/186
f 116/405/18 115/400/18 114/401/18
f 116/405/18 117/88/18 115/400/18
f 53/90/187 115/400/187 117/88/187
f 51/399/187 115/400/187 53/90/187
f 51/399/33 53/90/33 52/97/33
f 49/111/188 51/399/188 52/97/188
f 50/101/188 49/111/188 52/97/188
f 218/406/186 116/405/186 217/404/186
f 116/405/189 218/406/189 118/407/189
f 117/88/18 116/405/18 118/407/18
f 118/407/18 119/86/18 117/88/18
f 118/407/190 219/408/190 119/86/190
f 119/86/190 219/408/190 220/85/190
f 118/407/191 218/406/191 219/408/191
f 586/409/192 585/410/192 583/411/192
f 38/138/193 37/137/193 35/150/193
f 36/412/193 35/150/193 37/137/193
f 36/412/56 37/137/56 160/136/56
f 160/136/194 162/135/194 36/412/194
f 33/413/194 36/412/194 162/135/194
f 33/413/55 162/135/55 32/134/55
f 32/134/195 31/152/195 33/413/195
f 34/414/195 33/413/195 31/152/195
f 34/414/65 31/152/65 98/149/65
f 34/414/64 98/149/64 35/150/64
f 34/414/196 35/150/196 33/413/196
f 36/412/196 33/413/196 35/150/196
f 584/415/192 582/416/192 581/417/192
f 583/411/192 581/417/192 582/416/192
f 581/417/192 583/411/192 585/410/192
f 410/418/197 411/419/197 412/420/197
f 411/419/197 410/418/197 409/421/197
f 408/422/198 409/421/198 410/418/198
f 409/421/198 408/422/198 407/423/198
f 405/424/199 407/423/199 408/422/199
f 407/423/199 405/424/199 406/425/199
f 406/425/200 405/424/200 404/426/200
f 403/427/200 404/426/200 405/424/200
f 404/426/201 403/427/201 402/428/201
f 401/429/201 402/428/201 403/427/201
f 402/428/202 401/429/202 400/430/202
f 399/431/202 400/430/202 401/429/202
f 400/430/203 399/431/203 397/432/203
f 398/433/203 397/432/203 399/431/203
f 577/11/3 575/434/3 576/9/3
f 442/435/204 440/436/204 441/437/204
f 439/438/204 441/437/204 440/436/204
f 440/436/205 437/439/205 439/438/205
f 438/440/205 439/438/205 437/439/205
f 438/440/206 437/439/206 436/441/206
f 435/442/206 436/441/206 437/439/206
f 436/441/207 435/442/207 434/443/207
f 433/444/207 434/443/207 435/442/207
f 434/443/208 433/444/208 432/445/208
f 431/446/208 432/445/208 433/444/208
f 432/445/209 431/446/209 429/447/209
f 430/448/209 429/447/209 431/446/209
f 428/449/210 429/447/210 430/448/210
f 427/450/210 429/447/210 428/449/210
f 426/451/211 427/450/211 428/449/211
f 425/452/211 427/450/211 426/451/211
f 424/453/212 425/452/212 426/451/212
f 423/454/212 425/452/212 424/453/212
f 421/455/213 423/454/213 424/453/213
f 422/456/213 423/454/213 421/455/213
f 422/456/214 421/455/214 420/457/214
f 419/458/214 420/457/214 421/455/214
f 420/457/215 419/458/215 418/459/215
f 417/460/215 418/459/215 419/458/215
f 418/459/216 417/460/216 416/461/216
f 415/462/216 416/461/216 417/460/216
f 416/461/217 415/462/217 413/463/217
f 414/464/217 413/463/217 415/462/217
f 412/420/218 413/463/218 414/464/218
f 413/463/218 412/420/218 411/419/218
f 574/465/219 573/466/219 571/467/219
f 398/468/220 396/469/220 397/470/220
f 397/470/220 396/469/220 395/471/220
f 396/469/221 394/472/221 395/471/221
f 395/471/221 394/472/221 393/473/221
f 394/472/222 392/474/222 393/473/222
f 393/473/222 392/474/222 391/475/222
f 392/474/223 389/476/223 391/475/223
f 391/475/223 389/476/223 390/477/223
f 390/477/224 389/476/224 388/478/224
f 386/479/224 388/478/224 389/476/224
f 388/478/225 386/479/225 385/480/225
f 387/481/225 385/480/225 386/479/225
f 385/480/226 387/481/226 448/482/226
f 447/483/226 448/482/226 387/481/226
f 448/482/227 447/483/227 445/484/227
f 446/485/227 445/484/227 447/483/227
f 446/485/228 444/486/228 445/484/228
f 443/487/228 445/484/228 444/486/228
f 444/486/229 442/435/229 443/487/229
f 441/437/229 443/487/229 442/435/229
f 368/488/230 366/489/230 208/490/230
f 209/491/231 208/490/231 366/489/231
f 366/489/232 364/492/232 209/491/232
f 210/493/232 209/491/232 364/492/232
f 364/492/233 362/494/233 210/493/233
f 211/495/233 210/493/233 362/494/233
f 362/494/234 360/496/234 211/495/234
f 212/497/234 211/495/234 360/496/234
f 360/496/235 213/498/235 212/497/235
f 358/499/235 213/498/235 360/496/235
f 358/499/236 214/500/236 213/498/236
f 356/501/236 214/500/236 358/499/236
f 356/501/237 215/502/237 214/500/237
f 215/502/237 356/501/237 354/503/237
f 354/503/238 216/504/238 215/502/238
f 216/504/239 354/503/239 352/505/239
f 352/505/240 217/506/240 216/504/240
f 217/506/240 352/505/240 350/507/240
f 217/506/241 350/507/241 218/508/241
f 348/509/242 218/508/242 350/507/242
f 218/508/243 348/509/243 219/510/243
f 346/511/243 219/510/243 348/509/243
f 219/510/244 346/511/244 220/512/244
f 344/513/245 220/512/245 346/511/245
f 220/512/246 344/513/246 221/514/246
f 342/515/246 221/514/246 344/513/246
f 221/514/247 342/515/247 222/516/247
f 340/517/247 222/516/247 342/515/247
f 340/517/248 223/518/248 222/516/248
f 338/519/248 223/518/248 340/517/248
f 338/519/249 224/520/249 223/518/249
f 336/521/249 224/520/249 338/519/249
f 336/521/250 193/522/250 224/520/250
f 336/521/250 334/523/250 193/522/250
f 572/524/219 570/525/219 569/526/219
f 571/467/219 569/526/219 570/525/219
f 569/526/219 571/467/219 573/466/219
f 378/527/251 376/528/251 203/529/251
f 204/530/251 203/529/251 376/528/251
f 376/528/252 374/531/252 204/530/252
f 205/532/252 204/530/252 374/531/252
f 374/531/253 372/533/253 205/532/253
f 206/534/253 205/532/253 372/533/253
f 372/533/254 370/535/254 206/534/254
f 207/536/254 206/534/254 370/535/254
f 370/535/255 368/488/255 207/536/255
f 208/490/255 207/536/255 368/488/255
f 324/537/256 323/538/256 198/539/256
f 199/540/256 198/539/256 323/538/256
f 323/538/257 384/541/257 199/540/257
f 200/542/257 199/540/257 384/541/257
f 384/541/258 382/543/258 200/542/258
f 201/544/259 200/542/259 382/543/259
f 382/543/260 380/545/260 201/544/260
f 202/546/260 201/544/260 380/545/260
f 380/545/261 378/527/261 202/546/261
f 203/529/261 202/546/261 378/527/261
f 334/547/262 194/548/262 193/549/262
f 194/548/262 334/547/262 332/550/262
f 332/550/263 195/551/263 194/548/263
f 195/551/263 332/550/263 330/552/263
f 195/551/264 330/552/264 196/553/264
f 196/553/264 330/552/264 328/554/264
f 328/554/265 326/555/265 196/553/265
f 197/556/265 196/553/265 326/555/265
f 197/556/266 326/555/266 198/539/266
f 324/537/266 198/539/266 326/555/266
f 237/557/267 236/558/267 357/559/267
f 355/560/267 357/559/267 236/558/267
f 355/560/268 236/558/268 353/561/268
f 235/562/268 353/561/268 236/558/268
f 353/561/269 235/562/269 351/563/269
f 234/564/269 351/563/269 235/562/269
f 351/563/270 234/564/270 349/565/270
f 233/566/271 349/565/271 234/564/271
f 233/566/272 347/567/272 349/565/272
f 347/567/272 233/566/272 232/568/272
f 232/568/273 345/569/273 347/567/273
f 345/569/273 232/568/273 231/570/273
f 231/570/274 343/571/274 345/569/274
f 343/571/274 231/570/274 230/572/274
f 343/571/275 230/572/275 341/573/275
f 341/573/275 230/572/275 229/574/275
f 341/573/276 229/574/276 339/575/276
f 339/575/276 229/574/276 228/576/276
f 339/575/277 228/576/277 337/577/277
f 227/578/277 337/577/277 228/576/277
f 337/577/278 227/578/278 335/579/278
f 226/580/278 335/579/278 227/578/278
f 335/579/279 226/580/279 333/581/279
f 225/582/280 333/581/280 226/580/280
f 566/583/281 565/584/281 564/585/281
f 568/586/281 566/583/281 564/585/281
f 568/586/281 567/587/281 566/583/281
f 242/588/282 241/589/282 367/590/282
f 365/591/282 367/590/282 241/589/282
f 241/589/283 240/592/283 365/591/283
f 363/593/283 365/591/283 240/592/283
f 240/592/284 239/594/284 363/593/284
f 361/595/284 363/593/284 239/594/284
f 239/594/285 238/596/285 361/595/285
f 359/597/285 361/595/285 238/596/285
f 238/596/286 237/557/286 359/597/286
f 357/559/286 359/597/286 237/557/286
f 247/598/287 246/599/287 377/600/287
f 375/601/287 377/600/287 246/599/287
f 246/599/288 245/602/288 375/601/288
f 373/603/288 375/601/288 245/602/288
f 245/602/289 244/604/289 373/603/289
f 371/605/289 373/603/289 244/604/289
f 244/604/290 243/606/290 371/605/290
f 369/607/290 371/605/290 243/606/290
f 243/606/291 242/588/291 369/607/291
f 367/590/291 369/607/291 242/588/291
f 252/608/292 321/609/292 322/610/292
f 321/609/292 252/608/292 251/611/292
f 251/611/293 250/612/293 321/609/293
f 383/613/294 321/609/294 250/612/294
f 250/612/295 249/614/295 383/613/295
f 381/615/295 383/613/295 249/614/295
f 249/614/296 248/616/296 381/615/296
f 379/617/297 381/615/297 248/616/297
f 248/616/298 247/598/298 379/617/298
f 377/600/298 379/617/298 247/598/298
f 333/618/299 225/619/299 331/620/299
f 256/621/299 331/620/299 225/619/299
f 331/620/300 256/621/300 329/622/300
f 255/623/300 329/622/300 256/621/300
f 255/623/301 327/624/301 329/622/301
f 254/625/301 327/624/301 255/623/301
f 254/625/302 325/626/302 327/624/302
f 325/626/302 254/625/302 253/627/302
f 253/627/303 252/608/303 325/626/303
f 322/610/303 325/626/303 252/608/303
f 274/628/304 272/629/304 273/630/304
f 271/631/304 273/630/304 272/629/304
f 272/629/305 269/632/305 271/631/305
f 270/633/305 271/631/305 269/632/305
f 284/634/306 283/635/306 282/636/306
f 283/635/306 281/637/306 282/636/306
f 282/636/307 281/637/307 280/638/307
f 281/637/307 279/639/307 280/638/307
f 280/638/308 279/639/308 277/640/308
f 279/639/308 278/641/308 277/640/308
f 278/641/309 276/642/309 277/640/309
f 275/643/309 277/640/309 276/642/309
f 276/642/310 274/628/310 275/643/310
f 273/630/310 275/643/310 274/628/310
f 294/644/311 292/645/311 293/646/311
f 291/647/311 293/646/311 292/645/311
f 292/645/312 290/648/312 291/647/312
f 289/649/312 291/647/312 290/648/312
f 290/648/313 288/650/313 289/649/313
f 287/651/313 289/649/313 288/650/313
f 288/650/314 285/652/314 287/651/314
f 286/653/314 287/651/314 285/652/314
f 286/653/315 285/652/315 284/634/315
f 283/635/315 284/634/315 285/652/315
f 304/654/316 301/655/316 303/656/316
f 302/657/316 303/656/316 301/655/316
f 300/658/317 302/657/317 301/655/317
f 301/655/317 299/659/317 300/658/317
f 298/660/318 300/658/318 299/659/318
f 299/659/318 297/661/318 298/660/318
f 296/662/319 298/660/319 297/661/319
f 297/661/319 295/663/319 296/662/319
f 293/646/320 296/662/320 295/663/320
f 295/663/320 294/644/320 293/646/320
f 311/664/321 313/665/321 314/666/321
f 312/667/321 311/664/321 314/666/321
f 309/668/322 311/664/322 312/667/322
f 310/669/322 309/668/322 312/667/322
f 310/669/323 308/670/323 309/668/323
f 307/671/323 309/668/323 308/670/323
f 308/670/324 306/672/324 307/671/324
f 305/673/324 307/671/324 306/672/324
f 306/672/325 304/654/325 305/673/325
f 303/656/325 305/673/325 304/654/325
f 260/674/326 258/675/326 257/676/326
f 259/677/326 257/676/326 258/675/326
f 258/675/327 320/678/327 259/677/327
f 319/679/327 259/677/327 320/678/327
f 320/678/328 318/680/328 319/679/328
f 317/681/328 319/679/328 318/680/328
f 315/682/329 317/681/329 318/680/329
f 316/683/329 315/682/329 318/680/329
f 313/665/330 315/682/330 316/683/330
f 314/666/330 313/665/330 316/683/330
f 270/684/331 269/685/331 268/686/331
f 267/687/331 268/686/331 269/685/331
f 268/686/332 267/687/332 266/688/332
f 265/689/332 266/688/332 267/687/332
f 266/688/333 265/689/333 264/690/333
f 263/691/333 264/690/333 265/689/333
f 264/690/334 263/691/334 261/692/334
f 262/693/334 261/692/334 263/691/334
f 262/693/335 260/674/335 261/692/335
f 257/676/335 261/692/335 260/674/335
f 40/120/58 102/139/58 104/392/58
f 104/392/18 102/139/18 103/694/18
f 104/392/18 103/694/18 105/393/18
f 106/695/18 105/393/18 103/694/18
f 106/695/18 107/394/18 105/393/18
f 107/394/336 106/695/336 214/696/336
f 214/696/337 215/697/337 107/394/337
f 109/395/337 107/394/337 215/697/337
f 215/697/338 216/403/338 109/395/338
f 112/402/339 109/395/339 216/403/339
f 99/141/63 209/147/63 210/698/63
f 210/698/340 101/699/340 99/141/340
f 102/139/18 99/141/18 101/699/18
f 101/699/18 103/694/18 102/139/18
f 211/700/341 103/694/341 101/699/341
f 103/694/342 211/700/342 212/701/342
f 212/701/343 106/695/343 103/694/343
f 106/695/343 212/701/343 213/702/343
f 213/702/336 214/696/336 106/695/336
f 101/699/340 210/698/340 211/700/340
f 565/584/281 563/703/281 564/585/281
f 635/704/31 633/705/31 634/706/31
f 636/707/31 634/706/31 633/705/31
f 636/707/344 601/250/344 634/706/344
f 601/250/344 636/707/344 604/708/344
f 604/708/31 602/251/31 601/250/31
f 602/251/345 604/708/345 639/709/345
f 637/710/345 639/709/345 604/708/345
f 639/709/31 637/710/31 638/711/31
f 640/712/31 638/711/31 637/710/31
f 632/713/31 630/714/31 629/715/31
f 631/716/31 629/715/31 630/714/31
f 631/716/346 601/250/346 629/715/346
f 610/252/346 629/715/346 601/250/346
f 562/717/347 561/718/347 559/719/347
f 605/272/348 607/271/348 611/720/348
f 612/721/348 611/720/348 607/271/348
f 612/721/31 649/722/31 611/720/31
f 650/723/31 611/720/31 649/722/31
f 560/724/347 558/725/347 557/726/347
f 559/719/347 557/726/347 558/725/347
f 557/726/347 559/719/347 561/718/347
f 483/727/127 481/728/127 482/729/127
f 483/727/127 482/729/127 484/248/127
f 484/248/127 482/729/127 600/246/127
f 488/730/1 486/731/1 485/732/1
f 487/3/1 485/732/1 486/731/1
f 485/732/1 487/3/1 489/2/1
f 554/733/349 553/734/349 552/735/349
f 556/736/349 554/733/349 552/735/349
f 556/736/349 555/737/349 554/733/349
f 493/61/14 491/738/14 492/59/14
f 553/734/349 551/739/349 552/735/349
f 502/740/13 501/56/13 500/55/13
f 550/741/4 549/16/4 548/15/4
f 505/51/12 503/742/12 504/49/12
f 541/743/6 539/19/6 540/21/6
f 514/744/11 513/46/11 512/45/11
f 538/745/7 537/26/7 536/25/7
f 517/746/10 515/39/10 516/41/10
f 529/747/8 527/29/8 528/31/8
f 526/748/9 525/36/9 524/35/9
