# WaveFront *.obj file (generated by Autodesk ATF)

mtllib rl shield.mtl

g Solid4

v -199.121132 86.244736 0.000000
v -199.121132 86.244736 50.000000
v -198.331642 81.624632 0.000000
v -198.331642 81.624632 50.000000
v -197.265472 75.403471 0.000000
v -197.265472 75.403471 50.000000
v -195.858364 67.759042 0.000000
v -195.858364 67.759042 50.000000
v -194.053631 58.862581 0.000000
v -194.053631 58.862581 50.000000
v -191.802158 48.878732 0.000000
v -191.802158 48.878732 50.000000
v -189.062347 37.965572 0.000000
v -189.062347 37.965572 50.000000
v -188.842564 80.027466 0.000000
v -188.842564 80.027466 50.000000
v -185.800171 26.274588 0.000000
v -185.800171 26.274588 50.000000
v -181.989174 13.950690 0.000000
v -181.989174 13.950690 50.000000
v -178.174248 7.366816 0.000000
v -178.174248 7.366816 50.000000
v -177.642956 75.683246 0.000000
v -177.642956 75.683246 50.000000
v -174.298534 1.507518 0.000000
v -174.298534 1.507518 50.000000
v -169.828281 -3.698632 0.000000
v -169.828281 -3.698632 50.000000
v -165.860462 73.343210 0.000000
v -165.860462 73.343210 50.000000
v -164.344044 -8.323810 0.000000
v -164.344044 -8.323810 50.000000
v -157.540617 -12.440944 0.000000
v -157.540617 -12.440944 50.000000
v -153.850746 73.078012 0.000000
v -153.850746 73.078012 50.000000
v -149.227057 -16.123710 0.000000
v -149.227057 -16.123710 50.000000
v -148.642530 -62.362571 0.000000
v -148.642530 -62.362571 50.000000
v -148.512983 -60.430098 0.000000
v -148.512983 -60.430098 50.000000
v -148.019762 -64.291697 0.000000
v -148.019762 -64.291697 50.000000
v -146.648951 -56.983762 0.000000
v -146.648951 -56.983762 50.000000
v -143.519888 -54.484973 0.000000
v -143.519888 -54.484973 50.000000
v -141.976433 74.895658 0.000000
v -141.976433 74.895658 50.000000
v -139.877710 -52.947450 0.000000
v -139.877710 -52.947450 50.000000
v -139.799671 -78.438954 0.000000
v -139.799671 -78.438954 50.000000
v -139.326696 -19.446537 0.000000
v -139.326696 -19.446537 50.000000
v -135.996685 -52.016068 0.000000
v -135.996685 -52.016068 50.000000
v -131.225376 -51.470976 0.000000
v -131.225376 -51.470976 50.000000
v -131.021757 -92.263527 0.000000
v -131.021757 -92.263527 50.000000
v -130.595989 78.741269 0.000000
v -130.595989 78.741269 50.000000
v -127.883177 -22.486532 0.000000
v -127.883177 -22.486532 50.000000
v -124.482431 -51.334162 0.000000
v -124.482431 -51.334162 50.000000
v -121.736040 -105.661364 0.000000
v -121.736040 -105.661364 50.000000
v -120.052996 84.498749 0.000000
v -120.052996 84.498749 50.000000
v -115.754871 -51.692247 0.000000
v -115.754871 -51.692247 50.000000
v -115.111237 -25.339637 0.000000
v -115.111237 -25.339637 50.000000
v -112.002296 -118.536930 0.000000
v -112.002296 -118.536930 50.000000
v -110.665751 91.994286 0.000000
v -110.665751 91.994286 50.000000
v -102.717657 101.001568 0.000000
v -102.717657 101.001568 50.000000
v -101.890039 -130.803185 0.000000
v -101.890039 -130.803185 50.000000
v -101.437836 -28.133721 0.000000
v -101.437836 -28.133721 50.000000
v -100.573254 180.059891 0.000000
v -100.573254 180.059891 50.000000
v -96.860075 -54.069152 0.000000
v -96.860075 -54.069152 50.000000
v -96.448679 111.248674 0.000000
v -96.448679 111.248674 50.000000
v -94.868975 169.488029 0.000000
v -94.868975 169.488029 50.000000
v -92.048073 122.426233 0.000000
v -92.048073 122.426233 50.000000
v -91.478558 -142.381563 0.000000
v -91.478558 -142.381563 50.000000
v -91.080761 158.088341 0.000000
v -91.080761 158.088341 50.000000
v -89.648685 134.196806 0.000000
v -89.648685 134.196806 50.000000
v -89.322977 146.205015 0.000000
v -89.322977 146.205015 50.000000
v -88.365717 -55.793662 0.000000
v -88.365717 -55.793662 50.000000
v -84.256277 183.011665 0.000000
v -84.256277 183.011665 50.000000
v -80.856895 -153.202009 0.000000
v -80.856895 -153.202009 50.000000
v -80.739632 -57.527652 0.000000
v -80.739632 -57.527652 50.000000
v -74.019871 -34.195886 0.000000
v -74.019871 -34.195886 50.000000
v -70.123820 -163.202953 0.000000
v -70.123820 -163.202953 50.000000
v -66.385632 185.421143 0.000000
v -66.385632 185.421143 50.000000
v -66.040969 -61.173520 0.000000
v -66.040969 -61.173520 50.000000
v -61.758699 -62.377443 0.000000
v -61.758699 -62.377443 50.000000
v -61.447539 -37.759819 0.000000
v -61.447539 -37.759819 50.000000
v -59.387879 -172.331352 0.000000
v -59.387879 -172.331352 50.000000
v -56.941772 -63.827391 0.000000
v -56.941772 -63.827391 50.000000
v -51.504388 -65.570517 0.000000
v -51.504388 -65.570517 50.000000
v -49.892912 -41.786757 0.000000
v -49.892912 -41.786757 50.000000
v -48.767371 -180.542603 0.000000
v -48.767371 -180.542603 50.000000
v -47.206788 187.250118 0.000000
v -47.206788 187.250118 50.000000
v -45.413280 -67.635880 0.000000
v -45.413280 -67.635880 50.000000
v -38.687677 -70.034451 0.000000
v -38.687677 -70.034451 50.000000
v -38.390341 -187.800655 0.000000
v -38.390341 -187.800655 50.000000
v -31.399331 -72.759113 0.000000
v -31.399331 -72.759113 50.000000
v -28.682592 -51.224866 0.000000
v -28.682592 -51.224866 50.000000
v -28.394585 -194.077892 0.000000
v -28.394585 -194.077892 50.000000
v -26.965208 188.460369 0.000000
v -26.965208 188.460369 50.000000
v -18.927661 -199.355259 0.000000
v -18.927661 -199.355259 50.000000
v -15.683852 -79.067793 0.000000
v -15.683852 -79.067793 50.000000
v -10.146877 -203.622131 0.000000
v -10.146877 -203.622131 50.000000
v -7.628846 -62.463021 0.000000
v -7.628846 -62.463021 50.000000
v -5.906363 189.013653 0.000000
v -5.906363 189.013653 50.000000
v -2.219292 -206.876431 0.000000
v -2.219292 -206.876431 50.000000
v 0.234039 -86.177883 0.000000
v 0.234039 -86.177883 50.000000
v 3.170605 -68.859205 0.000000
v 3.170605 -68.859205 50.000000
v 4.678279 -209.124546 0.000000
v 4.678279 -209.124546 50.000000
v 14.018090 -75.861344 0.000000
v 14.018090 -75.861344 50.000000
v 14.937415 -93.672085 0.000000
v 14.937415 -93.672085 50.000000
v 15.724280 188.871746 0.000000
v 15.724280 188.871746 50.000000
v 22.107553 -201.148357 0.000000
v 22.107553 -201.148357 50.000000
v 24.698558 -83.438997 0.000000
v 24.698558 -83.438997 50.000000
v 27.610652 -101.244097 0.000000
v 27.610652 -101.244097 50.000000
v 34.936187 -91.438656 0.000000
v 34.936187 -91.438656 50.000000
v 37.681253 187.996445 0.000000
v 37.681253 187.996445 50.000000
v 38.064485 -108.705549 0.000000
v 38.064485 -108.705549 50.000000
v 38.204088 -192.571068 0.000000
v 38.204088 -192.571068 50.000000
v 44.399018 -99.589224 0.000000
v 44.399018 -99.589224 50.000000
v 46.635995 -115.973654 0.000000
v 46.635995 -115.973654 50.000000
v 52.779479 -107.604227 0.000000
v 52.779479 -107.604227 50.000000
v 53.064785 -183.470650 0.000000
v 53.064785 -183.470650 50.000000
v 53.739753 -123.015394 0.000000
v 53.739753 -123.015394 50.000000
v 59.652228 -129.820690 0.000000
v 59.652228 -129.820690 50.000000
v 59.719090 186.349487 0.000000
v 59.719090 186.349487 50.000000
v 59.908295 -115.326529 0.000000
v 59.908295 -115.326529 50.000000
v 64.505973 -136.401644 0.000000
v 64.505973 -136.401644 50.000000
v 65.770226 -122.748384 0.000000
v 65.770226 -122.748384 50.000000
v 66.781774 -173.920326 0.000000
v 66.781774 -173.920326 50.000000
v 68.309412 -142.790108 0.000000
v 68.309412 -142.790108 50.000000
v 70.467982 -129.972801 0.000000
v 70.467982 -129.972801 50.000000
v 70.617299 -167.539806 0.000000
v 70.617299 -167.539806 50.000000
v 70.992599 -149.032354 0.000000
v 70.992599 -149.032354 50.000000
v 72.383747 -161.328373 0.000000
v 72.383747 -161.328373 50.000000
v 72.418633 -155.187664 0.000000
v 72.418633 -155.187664 50.000000
v 74.107718 -137.090950 0.000000
v 74.107718 -137.090950 50.000000
v 76.759315 -144.139633 0.000000
v 76.759315 -144.139633 50.000000
v 78.455801 -151.100674 0.000000
v 78.455801 -151.100674 50.000000
v 78.931346 -164.412136 0.000000
v 78.931346 -164.412136 50.000000
v 79.193368 -157.900887 0.000000
v 79.193368 -157.900887 50.000000
v 81.592321 183.892670 0.000000
v 81.592321 183.892670 50.000000
v 89.296036 -155.421286 0.000000
v 89.296036 -155.421286 50.000000
v 98.957901 -146.223259 0.000000
v 98.957901 -146.223259 50.000000
v 103.055487 180.587769 0.000000
v 103.055487 180.587769 50.000000
v 107.967415 -136.855745 0.000000
v 107.967415 -136.855745 50.000000
v 116.372147 -127.353640 0.000000
v 116.372147 -127.353640 50.000000
v 123.863115 176.396542 0.000000
v 123.863115 176.396542 50.000000
v 131.543379 -108.070974 0.000000
v 131.543379 -108.070974 50.000000
v 143.769732 171.280785 0.000000
v 143.769732 171.280785 50.000000
v 144.795198 -88.597660 0.000000
v 144.795198 -88.597660 50.000000
v 156.405478 -69.110837 0.000000
v 156.405478 -69.110837 50.000000
v 162.529888 165.202255 0.000000
v 162.529888 165.202255 50.000000
v 166.606350 -49.742327 0.000000
v 166.606350 -49.742327 50.000000
v 175.584221 -30.578697 0.000000
v 175.584221 -30.578697 50.000000
v 179.898090 158.122740 0.000000
v 179.898090 158.122740 50.000000
v 183.479824 -11.661212 0.000000
v 183.479824 -11.661212 50.000000
v 190.388088 7.014132 0.000000
v 190.388088 7.014132 50.000000
v 195.628891 150.004005 0.000000
v 195.628891 150.004005 50.000000
v 196.358299 25.496628 0.000000
v 196.358299 25.496628 50.000000
v 201.393967 43.880854 0.000000
v 201.393967 43.880854 50.000000
v 205.452881 62.306666 0.000000
v 205.452881 62.306666 50.000000
v 208.447132 80.959206 0.000000
v 208.447132 80.959206 50.000000
v 209.476814 140.807829 0.000000
v 209.476814 140.807829 50.000000
v 210.243073 100.068893 0.000000
v 210.243073 100.068893 50.000000
v 210.661316 119.911432 0.000000
v 210.661316 119.911432 50.000000
vt 18.735950 0.000000 0.000000
vt 20.175652 0.000000 0.000000
vt 21.615356 0.000000 0.000000
vt 23.055059 0.000000 0.000000
vt 24.494762 0.000000 0.000000
vt 25.934464 0.000000 0.000000
vt 27.374168 0.000000 0.000000
vt 28.813871 0.000000 0.000000
vt 30.253572 0.000000 0.000000
vt 31.693277 0.000000 0.000000
vt 33.132980 0.000000 0.000000
vt 34.572681 0.000000 0.000000
vt 36.012386 0.000000 0.000000
vt 37.452087 0.000000 0.000000
vt 38.891792 0.000000 0.000000
vt 40.331497 0.000000 0.000000
vt 41.771198 0.000000 0.000000
vt 41.771198 5.000000 0.000000
vt 40.331497 5.000000 0.000000
vt 38.891792 5.000000 0.000000
vt 37.452087 5.000000 0.000000
vt 36.012386 5.000000 0.000000
vt 34.572681 5.000000 0.000000
vt 33.132980 5.000000 0.000000
vt 31.693277 5.000000 0.000000
vt 30.253572 5.000000 0.000000
vt 28.813871 5.000000 0.000000
vt 27.374168 5.000000 0.000000
vt 25.934464 5.000000 0.000000
vt 24.494762 5.000000 0.000000
vt 23.055059 5.000000 0.000000
vt 21.615356 5.000000 0.000000
vt 20.175652 5.000000 0.000000
vt 18.735950 5.000000 0.000000
vt 0.000000 0.000000 0.000000
vt 1.358595 0.000000 0.000000
vt 2.717190 0.000000 0.000000
vt 4.075784 0.000000 0.000000
vt 5.434379 0.000000 0.000000
vt 6.792974 0.000000 0.000000
vt 8.151568 0.000000 0.000000
vt 9.510163 0.000000 0.000000
vt 10.868758 0.000000 0.000000
vt 12.227353 0.000000 0.000000
vt 13.585948 0.000000 0.000000
vt 14.944543 0.000000 0.000000
vt 16.303137 0.000000 0.000000
vt 17.661732 0.000000 0.000000
vt 19.020327 0.000000 0.000000
vt 20.378922 0.000000 0.000000
vt 21.058220 0.000000 0.000000
vt 21.737516 0.000000 0.000000
vt 22.416813 0.000000 0.000000
vt 23.096111 0.000000 0.000000
vt 23.775408 0.000000 0.000000
vt 24.454706 0.000000 0.000000
vt 27.171896 0.000000 0.000000
vt 28.530491 0.000000 0.000000
vt 29.889086 0.000000 0.000000
vt 32.606274 0.000000 0.000000
vt 33.964870 0.000000 0.000000
vt 35.323463 0.000000 0.000000
vt 36.682060 0.000000 0.000000
vt 38.040653 0.000000 0.000000
vt 39.399250 0.000000 0.000000
vt 40.757843 0.000000 0.000000
vt 42.116440 0.000000 0.000000
vt 42.795734 0.000000 0.000000
vt 43.475033 0.000000 0.000000
vt 43.475033 5.000000 0.000000
vt 42.795734 5.000000 0.000000
vt 42.116440 5.000000 0.000000
vt 40.757843 5.000000 0.000000
vt 39.399250 5.000000 0.000000
vt 38.040653 5.000000 0.000000
vt 36.682060 5.000000 0.000000
vt 35.323463 5.000000 0.000000
vt 33.964870 5.000000 0.000000
vt 32.606274 5.000000 0.000000
vt 29.889086 5.000000 0.000000
vt 28.530491 5.000000 0.000000
vt 27.171896 5.000000 0.000000
vt 24.454706 5.000000 0.000000
vt 23.775408 5.000000 0.000000
vt 23.096111 5.000000 0.000000
vt 22.416813 5.000000 0.000000
vt 21.737516 5.000000 0.000000
vt 21.058220 5.000000 0.000000
vt 20.378922 5.000000 0.000000
vt 19.020327 5.000000 0.000000
vt 17.661732 5.000000 0.000000
vt 16.303137 5.000000 0.000000
vt 14.944543 5.000000 0.000000
vt 13.585948 5.000000 0.000000
vt 12.227353 5.000000 0.000000
vt 10.868758 5.000000 0.000000
vt 9.510163 5.000000 0.000000
vt 8.151568 5.000000 0.000000
vt 6.792974 5.000000 0.000000
vt 5.434379 5.000000 0.000000
vt 4.075784 5.000000 0.000000
vt 2.717190 5.000000 0.000000
vt 1.358595 5.000000 0.000000
vt 0.000000 5.000000 0.000000
vt 0.000000 0.000000 0.000000
vt 1.781708 0.000000 0.000000
vt 3.563416 0.000000 0.000000
vt 5.345124 0.000000 0.000000
vt 7.126832 0.000000 0.000000
vt 7.126832 5.000000 0.000000
vt 5.345124 5.000000 0.000000
vt 3.563416 5.000000 0.000000
vt 1.781708 5.000000 0.000000
vt 0.000000 5.000000 0.000000
vt 4.176306 -8.565365 0.000000
vt 5.919233 -7.767746 0.000000
vt 7.528887 -6.910017 0.000000
vt 9.014956 -5.999975 0.000000
vt 10.386656 -5.044943 0.000000
vt 10.770208 -4.406891 0.000000
vt 10.946853 -3.785748 0.000000
vt 10.950341 -3.171677 0.000000
vt 10.807737 -2.556146 0.000000
vt 10.539419 -1.931921 0.000000
vt 10.159075 -1.293075 0.000000
vt 9.673700 -0.634980 0.000000
vt 9.082454 0.045550 0.000000
vt 8.372078 0.749724 0.000000
vt 7.514926 1.476535 0.000000
vt 6.469543 2.222680 0.000000
vt 5.202219 2.979881 0.000000
vt 3.731882 3.729301 0.000000
vt 2.140093 4.440310 0.000000
vt 0.568545 5.071178 0.000000
vt -0.160290 5.343644 0.000000
vt -0.832850 5.583501 0.000000
vt -1.441961 5.790038 0.000000
vt -1.985699 5.964350 0.000000
vt -2.467392 6.109345 0.000000
vt -2.895619 6.229738 0.000000
vt -4.365485 6.594325 0.000000
vt -5.128094 6.767723 0.000000
vt -5.977529 6.940174 0.000000
vt -7.867009 7.177865 0.000000
vt -8.739765 7.213673 0.000000
vt -9.414060 7.199992 0.000000
vt -9.891191 7.145483 0.000000
vt -10.279293 7.052345 0.000000
vt -10.643510 6.898592 0.000000
vt -10.956417 6.648713 0.000000
vt -11.142820 6.304080 0.000000
vt -11.155775 6.110832 0.000000
vt -11.093498 5.917920 0.000000
vt -10.271489 4.503194 0.000000
vt -9.393698 3.120737 0.000000
vt -8.465126 1.780953 0.000000
vt -7.491751 0.493396 0.000000
vt -6.480526 -0.733229 0.000000
vt -5.439378 -1.891067 0.000000
vt -4.377211 -2.973111 0.000000
vt -3.303904 -3.973207 0.000000
vt -2.230310 -4.886046 0.000000
vt -1.168259 -5.707171 0.000000
vt -0.130556 -6.432976 0.000000
vt 0.869020 -7.060700 0.000000
vt 1.815712 -7.588436 0.000000
vt 2.693790 -8.015123 0.000000
vt 3.486549 -8.340553 0.000000
vt -10.386656 -5.044943 0.000000
vt -9.014956 -5.999975 0.000000
vt -7.528887 -6.910017 0.000000
vt -5.919233 -7.767746 0.000000
vt -4.176306 -8.565365 0.000000
vt -3.486549 -8.340553 0.000000
vt -2.693790 -8.015123 0.000000
vt -1.815712 -7.588436 0.000000
vt -0.869020 -7.060700 0.000000
vt 0.130556 -6.432976 0.000000
vt 1.168259 -5.707171 0.000000
vt 2.230310 -4.886046 0.000000
vt 3.303904 -3.973207 0.000000
vt 4.377211 -2.973111 0.000000
vt 5.439378 -1.891067 0.000000
vt 6.480526 -0.733229 0.000000
vt 7.491751 0.493396 0.000000
vt 8.465126 1.780953 0.000000
vt 9.393698 3.120737 0.000000
vt 10.271489 4.503194 0.000000
vt 11.093498 5.917920 0.000000
vt 11.155775 6.110832 0.000000
vt 11.142820 6.304080 0.000000
vt 10.956417 6.648713 0.000000
vt 10.643510 6.898592 0.000000
vt 10.279293 7.052345 0.000000
vt 9.891191 7.145483 0.000000
vt 9.414060 7.199992 0.000000
vt 8.739765 7.213673 0.000000
vt 7.867009 7.177865 0.000000
vt 5.977529 6.940174 0.000000
vt 5.128094 6.767723 0.000000
vt 4.365485 6.594325 0.000000
vt 2.895619 6.229738 0.000000
vt 2.467392 6.109345 0.000000
vt 1.985699 5.964350 0.000000
vt 1.441961 5.790038 0.000000
vt 0.832850 5.583501 0.000000
vt 0.160290 5.343644 0.000000
vt -0.568545 5.071178 0.000000
vt -2.140093 4.440310 0.000000
vt -3.731882 3.729301 0.000000
vt -5.202219 2.979881 0.000000
vt -6.469543 2.222680 0.000000
vt -7.514926 1.476535 0.000000
vt -8.372078 0.749724 0.000000
vt -9.082454 0.045550 0.000000
vt -9.673700 -0.634980 0.000000
vt -10.159075 -1.293075 0.000000
vt -10.539419 -1.931921 0.000000
vt -10.807737 -2.556146 0.000000
vt -10.950341 -3.171677 0.000000
vt -10.946853 -3.785748 0.000000
vt -10.770208 -4.406891 0.000000
vt 0.000000 0.000000 0.000000
vt 2.209135 0.000000 0.000000
vt 4.418270 0.000000 0.000000
vt 6.627405 0.000000 0.000000
vt 8.836540 0.000000 0.000000
vt 11.045675 0.000000 0.000000
vt 13.254810 0.000000 0.000000
vt 15.463945 0.000000 0.000000
vt 17.673080 0.000000 0.000000
vt 19.882215 0.000000 0.000000
vt 22.091351 0.000000 0.000000
vt 24.300486 0.000000 0.000000
vt 26.509621 0.000000 0.000000
vt 28.718756 0.000000 0.000000
vt 30.927891 0.000000 0.000000
vt 33.137024 0.000000 0.000000
vt 35.346161 0.000000 0.000000
vt 35.346161 5.000000 0.000000
vt 33.137024 5.000000 0.000000
vt 30.927891 5.000000 0.000000
vt 28.718756 5.000000 0.000000
vt 26.509621 5.000000 0.000000
vt 24.300486 5.000000 0.000000
vt 22.091351 5.000000 0.000000
vt 19.882215 5.000000 0.000000
vt 17.673080 5.000000 0.000000
vt 15.463945 5.000000 0.000000
vt 13.254810 5.000000 0.000000
vt 11.045675 5.000000 0.000000
vt 8.836540 5.000000 0.000000
vt 6.627405 5.000000 0.000000
vt 4.418270 5.000000 0.000000
vt 2.209135 5.000000 0.000000
vt 0.000000 5.000000 0.000000
vt 5.690318 0.000000 0.000000
vt 6.699958 0.000000 0.000000
vt 7.709597 0.000000 0.000000
vt 8.719237 0.000000 0.000000
vt 9.728878 0.000000 0.000000
vt 11.748157 0.000000 0.000000
vt 13.767437 0.000000 0.000000
vt 15.786717 0.000000 0.000000
vt 17.805996 0.000000 0.000000
vt 19.825277 0.000000 0.000000
vt 21.844557 0.000000 0.000000
vt 23.863834 0.000000 0.000000
vt 25.883116 0.000000 0.000000
vt 27.902395 0.000000 0.000000
vt 29.921677 0.000000 0.000000
vt 31.940956 0.000000 0.000000
vt 33.960236 0.000000 0.000000
vt 35.979515 0.000000 0.000000
vt 37.998795 0.000000 0.000000
vt 37.998795 5.000000 0.000000
vt 35.979515 5.000000 0.000000
vt 33.960236 5.000000 0.000000
vt 31.940956 5.000000 0.000000
vt 29.921677 5.000000 0.000000
vt 27.902395 5.000000 0.000000
vt 25.883116 5.000000 0.000000
vt 23.863834 5.000000 0.000000
vt 21.844557 5.000000 0.000000
vt 19.825277 5.000000 0.000000
vt 17.805996 5.000000 0.000000
vt 15.786717 5.000000 0.000000
vt 13.767437 5.000000 0.000000
vt 11.748157 5.000000 0.000000
vt 9.728878 5.000000 0.000000
vt 8.719237 5.000000 0.000000
vt 7.709597 5.000000 0.000000
vt 6.699958 5.000000 0.000000
vt 5.690318 5.000000 0.000000
vt 0.000000 0.000000 0.000000
vt 1.160399 0.000000 0.000000
vt 2.320798 0.000000 0.000000
vt 3.481197 0.000000 0.000000
vt 4.641596 0.000000 0.000000
vt 5.801995 0.000000 0.000000
vt 6.962395 0.000000 0.000000
vt 8.122793 0.000000 0.000000
vt 9.283193 0.000000 0.000000
vt 10.443592 0.000000 0.000000
vt 11.603991 0.000000 0.000000
vt 13.924789 0.000000 0.000000
vt 15.085188 0.000000 0.000000
vt 16.245586 0.000000 0.000000
vt 18.566385 0.000000 0.000000
vt 20.887184 0.000000 0.000000
vt 22.047583 0.000000 0.000000
vt 23.207981 0.000000 0.000000
vt 24.368382 0.000000 0.000000
vt 25.528780 0.000000 0.000000
vt 26.689178 0.000000 0.000000
vt 27.849579 0.000000 0.000000
vt 29.009977 0.000000 0.000000
vt 30.170376 0.000000 0.000000
vt 31.330774 0.000000 0.000000
vt 32.491173 0.000000 0.000000
vt 33.651573 0.000000 0.000000
vt 34.811974 0.000000 0.000000
vt 35.972370 0.000000 0.000000
vt 37.132771 0.000000 0.000000
vt 37.132771 5.000000 0.000000
vt 35.972370 5.000000 0.000000
vt 34.811974 5.000000 0.000000
vt 33.651573 5.000000 0.000000
vt 32.491173 5.000000 0.000000
vt 31.330774 5.000000 0.000000
vt 30.170376 5.000000 0.000000
vt 29.009977 5.000000 0.000000
vt 27.849579 5.000000 0.000000
vt 26.689178 5.000000 0.000000
vt 25.528780 5.000000 0.000000
vt 24.368382 5.000000 0.000000
vt 23.207981 5.000000 0.000000
vt 22.047583 5.000000 0.000000
vt 20.887184 5.000000 0.000000
vt 18.566385 5.000000 0.000000
vt 16.245586 5.000000 0.000000
vt 15.085188 5.000000 0.000000
vt 13.924789 5.000000 0.000000
vt 11.603991 5.000000 0.000000
vt 10.443592 5.000000 0.000000
vt 9.283193 5.000000 0.000000
vt 8.122793 5.000000 0.000000
vt 6.962395 5.000000 0.000000
vt 5.801995 5.000000 0.000000
vt 4.641596 5.000000 0.000000
vt 3.481197 5.000000 0.000000
vt 2.320798 5.000000 0.000000
vt 1.160399 5.000000 0.000000
vt 0.000000 5.000000 0.000000
vt 0.000000 0.000000 0.000000
vt 0.968027 0.000000 0.000000
vt 1.936054 0.000000 0.000000
vt 2.904080 0.000000 0.000000
vt 3.872107 0.000000 0.000000
vt 4.840134 0.000000 0.000000
vt 5.808160 0.000000 0.000000
vt 6.776187 0.000000 0.000000
vt 7.744214 0.000000 0.000000
vt 7.744214 5.000000 0.000000
vt 6.776187 5.000000 0.000000
vt 5.808160 5.000000 0.000000
vt 4.840134 5.000000 0.000000
vt 3.872107 5.000000 0.000000
vt 2.904080 5.000000 0.000000
vt 1.936054 5.000000 0.000000
vt 0.968027 5.000000 0.000000
vt 0.000000 5.000000 0.000000
vt 0.000000 -2.475239 0.000000
vt 0.000000 -3.678018 0.000000
vt 0.000000 -4.880797 0.000000
vt 0.000000 -6.083576 0.000000
vt 0.000000 -7.286356 0.000000
vt 0.000000 -8.489135 0.000000
vt 0.000000 -9.691915 0.000000
vt 0.000000 -10.894694 0.000000
vt 0.000000 -12.097473 0.000000
vt 0.000000 -13.300252 0.000000
vt 0.000000 -14.503032 0.000000
vt 0.000000 -15.705811 0.000000
vt 0.000000 -16.908590 0.000000
vt 0.000000 -18.111370 0.000000
vt 0.000000 -19.314148 0.000000
vt 0.000000 -20.516928 0.000000
vt 0.000000 -21.719707 0.000000
vt 5.000000 -21.719707 0.000000
vt 5.000000 -20.516928 0.000000
vt 5.000000 -19.314148 0.000000
vt 5.000000 -18.111370 0.000000
vt 5.000000 -16.908590 0.000000
vt 5.000000 -15.705811 0.000000
vt 5.000000 -14.503032 0.000000
vt 5.000000 -13.300252 0.000000
vt 5.000000 -12.097473 0.000000
vt 5.000000 -10.894694 0.000000
vt 5.000000 -9.691915 0.000000
vt 5.000000 -8.489135 0.000000
vt 5.000000 -7.286356 0.000000
vt 5.000000 -6.083576 0.000000
vt 5.000000 -4.880797 0.000000
vt 5.000000 -3.678018 0.000000
vt 5.000000 -2.475239 0.000000
vt -11.999312 13.792458 0.000000
vt -11.428885 12.735271 0.000000
vt -11.050063 11.595303 0.000000
vt -10.874285 10.406970 0.000000
vt -10.906857 9.206148 0.000000
vt -11.146794 8.029092 0.000000
vt -11.586855 6.911335 0.000000
vt -12.213753 5.886625 0.000000
vt -13.008562 4.985897 0.000000
vt -13.947287 4.236343 0.000000
vt -15.001586 3.660595 0.000000
vt -16.139629 3.276034 0.000000
vt -17.327063 3.094270 0.000000
vt -18.528032 3.120789 0.000000
vt -19.706284 3.354793 0.000000
vt -20.826242 3.789215 0.000000
vt -21.854099 4.410942 0.000000
vt -21.775150 3.948932 0.000000
vt -21.668533 3.326815 0.000000
vt -21.527822 2.562372 0.000000
vt -21.347351 1.672726 0.000000
vt -21.122202 0.674342 0.000000
vt -20.848221 -0.416974 0.000000
vt -20.522005 -1.586073 0.000000
vt -20.140905 -2.818463 0.000000
vt -19.759413 -3.476850 0.000000
vt -19.371840 -4.062780 0.000000
vt -18.924814 -4.583395 0.000000
vt -18.376392 -5.045913 0.000000
vt -17.696049 -5.457626 0.000000
vt -16.864693 -5.825902 0.000000
vt -15.874657 -6.158185 0.000000
vt -14.730306 -6.462185 0.000000
vt -13.453111 -6.747495 0.000000
vt -12.085771 -7.026904 0.000000
vt -9.343974 -7.633120 0.000000
vt -8.086740 -7.989513 0.000000
vt -6.931279 -8.392207 0.000000
vt -4.810246 -9.336019 0.000000
vt -2.704872 -10.459834 0.000000
vt -1.624927 -11.099452 0.000000
vt -0.540178 -11.799666 0.000000
vt 0.527869 -12.557431 0.000000
vt 1.551631 -13.357398 0.000000
vt 2.497915 -14.172454 0.000000
vt 3.335961 -14.973954 0.000000
vt 4.048842 -15.746185 0.000000
vt 4.635035 -16.488371 0.000000
vt 5.104811 -17.210812 0.000000
vt 5.468784 -17.922626 0.000000
vt 5.733944 -18.627495 0.000000
vt 5.903593 -19.323599 0.000000
vt 5.977350 -20.003620 0.000000
vt 5.951147 -20.654745 0.000000
vt 6.987616 -19.755661 0.000000
vt 7.953803 -18.835857 0.000000
vt 8.854753 -17.899107 0.000000
vt 9.695228 -16.948895 0.000000
vt 11.212351 -15.020629 0.000000
vt 12.537533 -13.073298 0.000000
vt 13.698561 -11.124616 0.000000
vt 14.718647 -9.187764 0.000000
vt 15.616435 -7.271401 0.000000
vt 16.405994 -5.379653 0.000000
vt 17.096823 -3.512119 0.000000
vt 17.693842 -1.663869 0.000000
vt 18.197409 0.174554 0.000000
vt 18.603300 2.017135 0.000000
vt 18.902725 3.882389 0.000000
vt 19.082319 5.793357 0.000000
vt 19.124146 7.777612 0.000000
vt 19.005693 9.867251 0.000000
vt 17.620901 10.786869 0.000000
vt 16.047821 11.598742 0.000000
vt 14.311001 12.306695 0.000000
vt 12.434986 12.914547 0.000000
vt 10.444324 13.426123 0.000000
vt 8.363562 13.845245 0.000000
vt 6.217246 14.175735 0.000000
vt 4.029922 14.421417 0.000000
vt 1.826138 14.586112 0.000000
vt -0.369559 14.673643 0.000000
vt -2.532624 14.687834 0.000000
vt -4.638508 14.632505 0.000000
vt -6.662666 14.511481 0.000000
vt -8.580550 14.328584 0.000000
vt -10.367615 14.087635 0.000000
vt 21.854099 4.410942 0.000000
vt 20.826242 3.789215 0.000000
vt 19.706284 3.354793 0.000000
vt 18.528032 3.120789 0.000000
vt 17.327063 3.094270 0.000000
vt 16.139629 3.276034 0.000000
vt 15.001586 3.660595 0.000000
vt 13.947287 4.236343 0.000000
vt 13.008562 4.985897 0.000000
vt 12.213753 5.886625 0.000000
vt 11.586855 6.911335 0.000000
vt 11.146794 8.029092 0.000000
vt 10.906857 9.206148 0.000000
vt 10.874285 10.406970 0.000000
vt 11.050063 11.595303 0.000000
vt 11.428885 12.735271 0.000000
vt 11.999312 13.792458 0.000000
vt 10.367615 14.087635 0.000000
vt 8.580550 14.328584 0.000000
vt 6.662666 14.511481 0.000000
vt 4.638508 14.632505 0.000000
vt 2.532624 14.687834 0.000000
vt 0.369559 14.673643 0.000000
vt -1.826138 14.586112 0.000000
vt -4.029922 14.421417 0.000000
vt -6.217246 14.175735 0.000000
vt -8.363562 13.845245 0.000000
vt -10.444324 13.426123 0.000000
vt -12.434986 12.914547 0.000000
vt -14.311001 12.306695 0.000000
vt -16.047821 11.598742 0.000000
vt -17.620901 10.786869 0.000000
vt -19.005693 9.867251 0.000000
vt -19.124146 7.777612 0.000000
vt -19.082319 5.793357 0.000000
vt -18.902725 3.882389 0.000000
vt -18.603300 2.017135 0.000000
vt -18.197409 0.174554 0.000000
vt -17.693842 -1.663869 0.000000
vt -17.096823 -3.512119 0.000000
vt -16.405994 -5.379653 0.000000
vt -15.616435 -7.271401 0.000000
vt -14.718647 -9.187764 0.000000
vt -13.698561 -11.124616 0.000000
vt -12.537533 -13.073298 0.000000
vt -11.212351 -15.020629 0.000000
vt -9.695228 -16.948895 0.000000
vt -8.854753 -17.899107 0.000000
vt -7.953803 -18.835857 0.000000
vt -6.987616 -19.755661 0.000000
vt -5.951147 -20.654745 0.000000
vt -5.977350 -20.003620 0.000000
vt -5.903593 -19.323599 0.000000
vt -5.733944 -18.627495 0.000000
vt -5.468784 -17.922626 0.000000
vt -5.104811 -17.210812 0.000000
vt -4.635035 -16.488371 0.000000
vt -4.048842 -15.746185 0.000000
vt -3.335961 -14.973954 0.000000
vt -2.497915 -14.172454 0.000000
vt -1.551631 -13.357398 0.000000
vt -0.527869 -12.557431 0.000000
vt 0.540178 -11.799666 0.000000
vt 1.624927 -11.099452 0.000000
vt 2.704872 -10.459834 0.000000
vt 4.810246 -9.336019 0.000000
vt 6.931279 -8.392207 0.000000
vt 8.086740 -7.989513 0.000000
vt 9.343974 -7.633120 0.000000
vt 12.085771 -7.026904 0.000000
vt 13.453111 -6.747495 0.000000
vt 14.730306 -6.462185 0.000000
vt 15.874657 -6.158185 0.000000
vt 16.864693 -5.825902 0.000000
vt 17.696049 -5.457626 0.000000
vt 18.376392 -5.045913 0.000000
vt 18.924814 -4.583395 0.000000
vt 19.371840 -4.062780 0.000000
vt 19.759413 -3.476850 0.000000
vt 20.140905 -2.818463 0.000000
vt 20.522005 -1.586073 0.000000
vt 20.848221 -0.416974 0.000000
vt 21.122202 0.674342 0.000000
vt 21.347351 1.672726 0.000000
vt 21.527822 2.562372 0.000000
vt 21.668533 3.326815 0.000000
vt 21.775150 3.948932 0.000000
vn -0.087420 -0.048556 0.000000
vn -0.085468 -0.051916 0.000000
vn -0.083330 -0.055283 0.000000
vn -0.081004 -0.058638 0.000000
vn -0.078488 -0.061965 0.000000
vn -0.075781 -0.065248 0.000000
vn -0.072881 -0.068472 0.000000
vn -0.069786 -0.071624 0.000000
vn -0.066492 -0.074692 0.000000
vn -0.062988 -0.077669 0.000000
vn -0.059259 -0.080551 0.000000
vn -0.055271 -0.083338 0.000000
vn -0.050967 -0.086037 0.000000
vn -0.046247 -0.088663 0.000000
vn -0.040927 -0.091241 0.000000
vn -0.034652 -0.093804 0.000000
vn -0.026671 -0.096378 0.000000
vn -0.026671 -0.096378 0.000000
vn -0.034652 -0.093804 0.000000
vn -0.040927 -0.091241 0.000000
vn -0.046247 -0.088663 0.000000
vn -0.050967 -0.086037 0.000000
vn -0.055271 -0.083338 0.000000
vn -0.059259 -0.080551 0.000000
vn -0.062988 -0.077669 0.000000
vn -0.066492 -0.074692 0.000000
vn -0.069786 -0.071624 0.000000
vn -0.072881 -0.068472 0.000000
vn -0.075781 -0.065248 0.000000
vn -0.078488 -0.061965 0.000000
vn -0.081004 -0.058638 0.000000
vn -0.083330 -0.055283 0.000000
vn -0.085468 -0.051916 0.000000
vn -0.087420 -0.048556 0.000000
vn 0.079272 -0.060959 0.000000
vn 0.091657 -0.039988 0.000000
vn 0.099062 -0.013667 0.000000
vn 0.099290 0.011897 0.000000
vn 0.094774 0.031904 0.000000
vn 0.088830 0.045926 0.000000
vn 0.083111 0.055611 0.000000
vn 0.077965 0.062622 0.000000
vn 0.073041 0.068301 0.000000
vn 0.067712 0.073587 0.000000
vn 0.061577 0.078793 0.000000
vn 0.054679 0.083727 0.000000
vn 0.048190 0.087622 0.000000
vn 0.042911 0.090325 0.000000
vn 0.038849 0.092145 0.000000
vn 0.035721 0.093402 0.000000
vn 0.034297 0.093935 0.000000
vn 0.032852 0.094450 0.000000
vn 0.031324 0.094967 0.000000
vn 0.029675 0.095495 0.000000
vn 0.027923 0.096022 0.000000
vn 0.026196 0.096508 0.000000
vn 0.022761 0.097375 0.000000
vn 0.021392 0.097685 0.000000
vn 0.018006 0.098366 0.000000
vn 0.006788 0.099769 0.000000
vn 0.001203 0.099993 0.000000
vn -0.006262 0.099804 0.000000
vn -0.017349 0.098484 0.000000
vn -0.029885 0.095430 0.000000
vn -0.049383 0.086956 0.000000
vn -0.075139 0.065986 0.000000
vn -0.097314 0.023022 0.000000
vn -0.099389 -0.011035 0.000000
vn -0.087112 -0.049108 0.000000
vn -0.087112 -0.049108 0.000000
vn -0.099389 -0.011035 0.000000
vn -0.097314 0.023022 0.000000
vn -0.075139 0.065986 0.000000
vn -0.049383 0.086956 0.000000
vn -0.029885 0.095430 0.000000
vn -0.017349 0.098484 0.000000
vn -0.006262 0.099804 0.000000
vn 0.001203 0.099993 0.000000
vn 0.006788 0.099769 0.000000
vn 0.018006 0.098366 0.000000
vn 0.021392 0.097685 0.000000
vn 0.022761 0.097375 0.000000
vn 0.026196 0.096508 0.000000
vn 0.027923 0.096022 0.000000
vn 0.029675 0.095495 0.000000
vn 0.031324 0.094967 0.000000
vn 0.032852 0.094450 0.000000
vn 0.034297 0.093935 0.000000
vn 0.035721 0.093402 0.000000
vn 0.038849 0.092145 0.000000
vn 0.042911 0.090325 0.000000
vn 0.048190 0.087622 0.000000
vn 0.054679 0.083727 0.000000
vn 0.061577 0.078793 0.000000
vn 0.067712 0.073587 0.000000
vn 0.073041 0.068301 0.000000
vn 0.077965 0.062622 0.000000
vn 0.083111 0.055611 0.000000
vn 0.088830 0.045926 0.000000
vn 0.094774 0.031904 0.000000
vn 0.099290 0.011897 0.000000
vn 0.099062 -0.013667 0.000000
vn 0.091657 -0.039988 0.000000
vn 0.079272 -0.060959 0.000000
vn 0.038871 -0.092136 0.000000
vn 0.044365 -0.089620 0.000000
vn 0.049680 -0.086787 0.000000
vn 0.054742 -0.083686 0.000000
vn 0.059495 -0.080376 0.000000
vn 0.059495 -0.080376 0.000000
vn 0.054742 -0.083686 0.000000
vn 0.049680 -0.086787 0.000000
vn 0.044365 -0.089620 0.000000
vn 0.038871 -0.092136 0.000000
vn 0.000000 0.000000 0.100000
vn 0.000000 0.000000 0.100000
vn 0.000000 0.000000 0.100000
vn 0.000000 0.000000 0.100000
vn 0.000000 0.000000 0.100000
vn 0.000000 0.000000 0.100000
vn 0.000000 0.000000 0.100000
vn 0.000000 0.000000 0.100000
vn 0.000000 0.000000 0.100000
vn 0.000000 0.000000 0.100000
vn 0.000000 0.000000 0.100000
vn 0.000000 0.000000 0.100000
vn 0.000000 0.000000 0.100000
vn 0.000000 0.000000 0.100000
vn 0.000000 0.000000 0.100000
vn 0.000000 0.000000 0.100000
vn 0.000000 0.000000 0.100000
vn 0.000000 0.000000 0.100000
vn 0.000000 0.000000 0.100000
vn 0.000000 0.000000 0.100000
vn 0.000000 0.000000 0.100000
vn 0.000000 0.000000 0.100000
vn 0.000000 0.000000 0.100000
vn 0.000000 0.000000 0.100000
vn 0.000000 0.000000 0.100000
vn 0.000000 0.000000 0.100000
vn 0.000000 0.000000 0.100000
vn 0.000000 0.000000 0.100000
vn 0.000000 0.000000 0.100000
vn 0.000000 0.000000 0.100000
vn 0.000000 0.000000 0.100000
vn 0.000000 0.000000 0.100000
vn 0.000000 0.000000 0.100000
vn 0.000000 0.000000 0.100000
vn 0.000000 0.000000 0.100000
vn 0.000000 0.000000 0.100000
vn 0.000000 0.000000 0.100000
vn 0.000000 0.000000 0.100000
vn 0.000000 0.000000 0.100000
vn 0.000000 0.000000 0.100000
vn 0.000000 0.000000 0.100000
vn 0.000000 0.000000 0.100000
vn 0.000000 0.000000 0.100000
vn 0.000000 0.000000 0.100000
vn 0.000000 0.000000 0.100000
vn 0.000000 0.000000 0.100000
vn 0.000000 0.000000 0.100000
vn 0.000000 0.000000 0.100000
vn 0.000000 0.000000 0.100000
vn 0.000000 0.000000 0.100000
vn 0.000000 0.000000 0.100000
vn 0.000000 0.000000 0.100000
vn 0.000000 0.000000 0.100000
vn 0.000000 0.000000 0.100000
vn 0.000000 0.000000 -0.100000
vn 0.000000 0.000000 -0.100000
vn 0.000000 0.000000 -0.100000
vn 0.000000 0.000000 -0.100000
vn 0.000000 0.000000 -0.100000
vn 0.000000 0.000000 -0.100000
vn 0.000000 0.000000 -0.100000
vn 0.000000 0.000000 -0.100000
vn 0.000000 0.000000 -0.100000
vn 0.000000 0.000000 -0.100000
vn 0.000000 0.000000 -0.100000
vn 0.000000 0.000000 -0.100000
vn 0.000000 0.000000 -0.100000
vn 0.000000 0.000000 -0.100000
vn 0.000000 0.000000 -0.100000
vn 0.000000 0.000000 -0.100000
vn 0.000000 0.000000 -0.100000
vn 0.000000 0.000000 -0.100000
vn 0.000000 0.000000 -0.100000
vn 0.000000 0.000000 -0.100000
vn 0.000000 0.000000 -0.100000
vn 0.000000 0.000000 -0.100000
vn 0.000000 0.000000 -0.100000
vn 0.000000 0.000000 -0.100000
vn 0.000000 0.000000 -0.100000
vn 0.000000 0.000000 -0.100000
vn 0.000000 0.000000 -0.100000
vn 0.000000 0.000000 -0.100000
vn 0.000000 0.000000 -0.100000
vn 0.000000 0.000000 -0.100000
vn 0.000000 0.000000 -0.100000
vn 0.000000 0.000000 -0.100000
vn 0.000000 0.000000 -0.100000
vn 0.000000 0.000000 -0.100000
vn 0.000000 0.000000 -0.100000
vn 0.000000 0.000000 -0.100000
vn 0.000000 0.000000 -0.100000
vn 0.000000 0.000000 -0.100000
vn 0.000000 0.000000 -0.100000
vn 0.000000 0.000000 -0.100000
vn 0.000000 0.000000 -0.100000
vn 0.000000 0.000000 -0.100000
vn 0.000000 0.000000 -0.100000
vn 0.000000 0.000000 -0.100000
vn 0.000000 0.000000 -0.100000
vn 0.000000 0.000000 -0.100000
vn 0.000000 0.000000 -0.100000
vn 0.000000 0.000000 -0.100000
vn 0.000000 0.000000 -0.100000
vn 0.000000 0.000000 -0.100000
vn 0.000000 0.000000 -0.100000
vn 0.000000 0.000000 -0.100000
vn 0.000000 0.000000 -0.100000
vn 0.000000 0.000000 -0.100000
vn 0.060512 0.079614 0.000000
vn 0.050388 0.086378 0.000000
vn 0.041615 0.090930 0.000000
vn 0.034124 0.093998 0.000000
vn 0.027725 0.096080 0.000000
vn 0.022213 0.097502 0.000000
vn 0.017400 0.098475 0.000000
vn 0.013126 0.099135 0.000000
vn 0.009259 0.099570 0.000000
vn 0.005684 0.099838 0.000000
vn 0.002300 0.099974 0.000000
vn -0.000992 0.099995 0.000000
vn -0.004288 0.099908 0.000000
vn -0.007703 0.099703 0.000000
vn -0.011375 0.099351 0.000000
vn -0.015492 0.098793 0.000000
vn -0.020333 0.097911 0.000000
vn -0.020333 0.097911 0.000000
vn -0.015492 0.098793 0.000000
vn -0.011375 0.099351 0.000000
vn -0.007703 0.099703 0.000000
vn -0.004288 0.099908 0.000000
vn -0.000992 0.099995 0.000000
vn 0.002300 0.099974 0.000000
vn 0.005684 0.099838 0.000000
vn 0.009259 0.099570 0.000000
vn 0.013126 0.099135 0.000000
vn 0.017400 0.098475 0.000000
vn 0.022213 0.097502 0.000000
vn 0.027725 0.096080 0.000000
vn 0.034124 0.093998 0.000000
vn 0.041615 0.090930 0.000000
vn 0.050388 0.086378 0.000000
vn 0.060512 0.079614 0.000000
vn 0.063718 -0.077071 0.000000
vn 0.067291 -0.073973 0.000000
vn 0.070564 -0.070858 0.000000
vn 0.073538 -0.067766 0.000000
vn 0.076222 -0.064731 0.000000
vn 0.080786 -0.058937 0.000000
vn 0.084414 -0.053613 0.000000
vn 0.087287 -0.048795 0.000000
vn 0.089584 -0.044438 0.000000
vn 0.091464 -0.040426 0.000000
vn 0.093063 -0.036597 0.000000
vn 0.094486 -0.032747 0.000000
vn 0.095808 -0.028649 0.000000
vn 0.097059 -0.024073 0.000000
vn 0.098214 -0.018816 0.000000
vn 0.099184 -0.012747 0.000000
vn 0.099828 -0.005862 0.000000
vn 0.099986 0.001683 0.000000
vn 0.099540 0.009576 0.000000
vn 0.099540 0.009576 0.000000
vn 0.099986 0.001683 0.000000
vn 0.099828 -0.005862 0.000000
vn 0.099184 -0.012747 0.000000
vn 0.098214 -0.018816 0.000000
vn 0.097059 -0.024073 0.000000
vn 0.095808 -0.028649 0.000000
vn 0.094486 -0.032747 0.000000
vn 0.093063 -0.036597 0.000000
vn 0.091464 -0.040426 0.000000
vn 0.089584 -0.044438 0.000000
vn 0.087287 -0.048795 0.000000
vn 0.084414 -0.053613 0.000000
vn 0.080786 -0.058937 0.000000
vn 0.076222 -0.064731 0.000000
vn 0.073538 -0.067766 0.000000
vn 0.070564 -0.070858 0.000000
vn 0.067291 -0.073973 0.000000
vn 0.063718 -0.077071 0.000000
vn -0.086780 -0.049692 0.000000
vn -0.085621 -0.051662 0.000000
vn -0.080327 -0.059561 0.000000
vn -0.070615 -0.070806 0.000000
vn -0.058124 -0.081373 0.000000
vn -0.045845 -0.088872 0.000000
vn -0.035799 -0.093373 0.000000
vn -0.028411 -0.095879 0.000000
vn -0.023408 -0.097222 0.000000
vn -0.020580 -0.097859 0.000000
vn -0.019813 -0.098018 0.000000
vn -0.024817 -0.096872 0.000000
vn -0.029994 -0.095396 0.000000
vn -0.035878 -0.093342 0.000000
vn -0.044462 -0.089572 0.000000
vn -0.049530 -0.086872 0.000000
vn -0.052492 -0.085115 0.000000
vn -0.056010 -0.082843 0.000000
vn -0.059716 -0.080212 0.000000
vn -0.063423 -0.077315 0.000000
vn -0.067147 -0.074103 0.000000
vn -0.071217 -0.070201 0.000000
vn -0.075904 -0.065104 0.000000
vn -0.081150 -0.058436 0.000000
vn -0.086498 -0.050180 0.000000
vn -0.091431 -0.040502 0.000000
vn -0.095524 -0.029582 0.000000
vn -0.098470 -0.017428 0.000000
vn -0.099931 -0.003703 0.000000
vn -0.099236 0.012338 0.000000
vn -0.099236 0.012338 0.000000
vn -0.099931 -0.003703 0.000000
vn -0.098470 -0.017428 0.000000
vn -0.095524 -0.029582 0.000000
vn -0.091431 -0.040502 0.000000
vn -0.086498 -0.050180 0.000000
vn -0.081150 -0.058436 0.000000
vn -0.075904 -0.065104 0.000000
vn -0.071217 -0.070201 0.000000
vn -0.067147 -0.074103 0.000000
vn -0.063423 -0.077315 0.000000
vn -0.059716 -0.080212 0.000000
vn -0.056010 -0.082843 0.000000
vn -0.052492 -0.085115 0.000000
vn -0.049530 -0.086872 0.000000
vn -0.044462 -0.089572 0.000000
vn -0.035878 -0.093342 0.000000
vn -0.029994 -0.095396 0.000000
vn -0.024817 -0.096872 0.000000
vn -0.019813 -0.098018 0.000000
vn -0.020580 -0.097859 0.000000
vn -0.023408 -0.097222 0.000000
vn -0.028411 -0.095879 0.000000
vn -0.035799 -0.093373 0.000000
vn -0.045845 -0.088872 0.000000
vn -0.058124 -0.081373 0.000000
vn -0.070615 -0.070806 0.000000
vn -0.080327 -0.059561 0.000000
vn -0.085621 -0.051662 0.000000
vn -0.086780 -0.049692 0.000000
vn -0.098428 -0.017662 0.000000
vn -0.098616 -0.016581 0.000000
vn -0.098483 -0.017351 0.000000
vn -0.098198 -0.018899 0.000000
vn -0.097797 -0.020873 0.000000
vn -0.097290 -0.023122 0.000000
vn -0.096675 -0.025571 0.000000
vn -0.095949 -0.028174 0.000000
vn -0.095105 -0.030904 0.000000
vn -0.095105 -0.030904 0.000000
vn -0.095949 -0.028174 0.000000
vn -0.096675 -0.025571 0.000000
vn -0.097290 -0.023122 0.000000
vn -0.097797 -0.020873 0.000000
vn -0.098198 -0.018899 0.000000
vn -0.098483 -0.017351 0.000000
vn -0.098616 -0.016581 0.000000
vn -0.098428 -0.017662 0.000000
vn -0.083548 -0.054952 0.000000
vn -0.091799 -0.039660 0.000000
vn -0.097278 -0.023172 0.000000
vn -0.099821 -0.005983 0.000000
vn -0.099350 0.011386 0.000000
vn -0.095879 0.028411 0.000000
vn -0.089514 0.044578 0.000000
vn -0.080446 0.059400 0.000000
vn -0.068950 0.072428 0.000000
vn -0.055372 0.083270 0.000000
vn -0.040123 0.091598 0.000000
vn -0.023662 0.097160 0.000000
vn -0.006486 0.099789 0.000000
vn 0.010885 0.099406 0.000000
vn 0.027927 0.096021 0.000000
vn 0.044127 0.089738 0.000000
vn 0.058994 0.080745 0.000000
vn 0.058994 0.080745 0.000000
vn 0.044127 0.089738 0.000000
vn 0.027927 0.096021 0.000000
vn 0.010885 0.099406 0.000000
vn -0.006486 0.099789 0.000000
vn -0.023662 0.097160 0.000000
vn -0.040123 0.091598 0.000000
vn -0.055372 0.083270 0.000000
vn -0.068950 0.072428 0.000000
vn -0.080446 0.059400 0.000000
vn -0.089514 0.044578 0.000000
vn -0.095879 0.028411 0.000000
vn -0.099350 0.011386 0.000000
vn -0.099821 -0.005983 0.000000
vn -0.097278 -0.023172 0.000000
vn -0.091799 -0.039660 0.000000
vn -0.083548 -0.054952 0.000000
vn 0.000000 0.000000 0.100000
vn 0.000000 0.000000 0.100000
vn 0.000000 0.000000 0.100000
vn 0.000000 0.000000 0.100000
vn 0.000000 0.000000 0.100000
vn 0.000000 0.000000 0.100000
vn 0.000000 0.000000 0.100000
vn 0.000000 0.000000 0.100000
vn 0.000000 0.000000 0.100000
vn 0.000000 0.000000 0.100000
vn 0.000000 0.000000 0.100000
vn 0.000000 0.000000 0.100000
vn 0.000000 0.000000 0.100000
vn 0.000000 0.000000 0.100000
vn 0.000000 0.000000 0.100000
vn 0.000000 0.000000 0.100000
vn 0.000000 0.000000 0.100000
vn 0.000000 0.000000 0.100000
vn 0.000000 0.000000 0.100000
vn 0.000000 0.000000 0.100000
vn 0.000000 0.000000 0.100000
vn 0.000000 0.000000 0.100000
vn 0.000000 0.000000 0.100000
vn 0.000000 0.000000 0.100000
vn 0.000000 0.000000 0.100000
vn 0.000000 0.000000 0.100000
vn 0.000000 0.000000 0.100000
vn 0.000000 0.000000 0.100000
vn 0.000000 0.000000 0.100000
vn 0.000000 0.000000 0.100000
vn 0.000000 0.000000 0.100000
vn 0.000000 0.000000 0.100000
vn 0.000000 0.000000 0.100000
vn 0.000000 0.000000 0.100000
vn 0.000000 0.000000 0.100000
vn 0.000000 0.000000 0.100000
vn 0.000000 0.000000 0.100000
vn 0.000000 0.000000 0.100000
vn 0.000000 0.000000 0.100000
vn 0.000000 0.000000 0.100000
vn 0.000000 0.000000 0.100000
vn 0.000000 0.000000 0.100000
vn 0.000000 0.000000 0.100000
vn 0.000000 0.000000 0.100000
vn 0.000000 0.000000 0.100000
vn 0.000000 0.000000 0.100000
vn 0.000000 0.000000 0.100000
vn 0.000000 0.000000 0.100000
vn 0.000000 0.000000 0.100000
vn 0.000000 0.000000 0.100000
vn 0.000000 0.000000 0.100000
vn 0.000000 0.000000 0.100000
vn 0.000000 0.000000 0.100000
vn 0.000000 0.000000 0.100000
vn 0.000000 0.000000 0.100000
vn 0.000000 0.000000 0.100000
vn 0.000000 0.000000 0.100000
vn 0.000000 0.000000 0.100000
vn 0.000000 0.000000 0.100000
vn 0.000000 0.000000 0.100000
vn 0.000000 0.000000 0.100000
vn 0.000000 0.000000 0.100000
vn 0.000000 0.000000 0.100000
vn 0.000000 0.000000 0.100000
vn 0.000000 0.000000 0.100000
vn 0.000000 0.000000 0.100000
vn 0.000000 0.000000 0.100000
vn 0.000000 0.000000 0.100000
vn 0.000000 0.000000 0.100000
vn 0.000000 0.000000 0.100000
vn 0.000000 0.000000 0.100000
vn 0.000000 0.000000 0.100000
vn 0.000000 0.000000 0.100000
vn 0.000000 0.000000 0.100000
vn 0.000000 0.000000 0.100000
vn 0.000000 0.000000 0.100000
vn 0.000000 0.000000 0.100000
vn 0.000000 0.000000 0.100000
vn 0.000000 0.000000 0.100000
vn 0.000000 0.000000 0.100000
vn 0.000000 0.000000 0.100000
vn 0.000000 0.000000 0.100000
vn 0.000000 0.000000 0.100000
vn 0.000000 0.000000 0.100000
vn 0.000000 0.000000 0.100000
vn 0.000000 0.000000 0.100000
vn 0.000000 0.000000 0.100000
vn 0.000000 0.000000 -0.100000
vn 0.000000 0.000000 -0.100000
vn 0.000000 0.000000 -0.100000
vn 0.000000 0.000000 -0.100000
vn 0.000000 0.000000 -0.100000
vn 0.000000 0.000000 -0.100000
vn 0.000000 0.000000 -0.100000
vn 0.000000 0.000000 -0.100000
vn 0.000000 0.000000 -0.100000
vn 0.000000 0.000000 -0.100000
vn 0.000000 0.000000 -0.100000
vn 0.000000 0.000000 -0.100000
vn 0.000000 0.000000 -0.100000
vn 0.000000 0.000000 -0.100000
vn 0.000000 0.000000 -0.100000
vn 0.000000 0.000000 -0.100000
vn 0.000000 0.000000 -0.100000
vn 0.000000 0.000000 -0.100000
vn 0.000000 0.000000 -0.100000
vn 0.000000 0.000000 -0.100000
vn 0.000000 0.000000 -0.100000
vn 0.000000 0.000000 -0.100000
vn 0.000000 0.000000 -0.100000
vn 0.000000 0.000000 -0.100000
vn 0.000000 0.000000 -0.100000
vn 0.000000 0.000000 -0.100000
vn 0.000000 0.000000 -0.100000
vn 0.000000 0.000000 -0.100000
vn 0.000000 0.000000 -0.100000
vn 0.000000 0.000000 -0.100000
vn 0.000000 0.000000 -0.100000
vn 0.000000 0.000000 -0.100000
vn 0.000000 0.000000 -0.100000
vn 0.000000 0.000000 -0.100000
vn 0.000000 0.000000 -0.100000
vn 0.000000 0.000000 -0.100000
vn 0.000000 0.000000 -0.100000
vn 0.000000 0.000000 -0.100000
vn 0.000000 0.000000 -0.100000
vn 0.000000 0.000000 -0.100000
vn 0.000000 0.000000 -0.100000
vn 0.000000 0.000000 -0.100000
vn 0.000000 0.000000 -0.100000
vn 0.000000 0.000000 -0.100000
vn 0.000000 0.000000 -0.100000
vn 0.000000 0.000000 -0.100000
vn 0.000000 0.000000 -0.100000
vn 0.000000 0.000000 -0.100000
vn 0.000000 0.000000 -0.100000
vn 0.000000 0.000000 -0.100000
vn 0.000000 0.000000 -0.100000
vn 0.000000 0.000000 -0.100000
vn 0.000000 0.000000 -0.100000
vn 0.000000 0.000000 -0.100000
vn 0.000000 0.000000 -0.100000
vn 0.000000 0.000000 -0.100000
vn 0.000000 0.000000 -0.100000
vn 0.000000 0.000000 -0.100000
vn 0.000000 0.000000 -0.100000
vn 0.000000 0.000000 -0.100000
vn 0.000000 0.000000 -0.100000
vn 0.000000 0.000000 -0.100000
vn 0.000000 0.000000 -0.100000
vn 0.000000 0.000000 -0.100000
vn 0.000000 0.000000 -0.100000
vn 0.000000 0.000000 -0.100000
vn 0.000000 0.000000 -0.100000
vn 0.000000 0.000000 -0.100000
vn 0.000000 0.000000 -0.100000
vn 0.000000 0.000000 -0.100000
vn 0.000000 0.000000 -0.100000
vn 0.000000 0.000000 -0.100000
vn 0.000000 0.000000 -0.100000
vn 0.000000 0.000000 -0.100000
vn 0.000000 0.000000 -0.100000
vn 0.000000 0.000000 -0.100000
vn 0.000000 0.000000 -0.100000
vn 0.000000 0.000000 -0.100000
vn 0.000000 0.000000 -0.100000
vn 0.000000 0.000000 -0.100000
vn 0.000000 0.000000 -0.100000
vn 0.000000 0.000000 -0.100000
vn 0.000000 0.000000 -0.100000
vn 0.000000 0.000000 -0.100000
vn 0.000000 0.000000 -0.100000
vn 0.000000 0.000000 -0.100000
vn 0.000000 0.000000 -0.100000
usemtl 190,188,186
f 43/1/1 53/2/2 44/34/34
f 44/34/34 53/2/2 54/33/33
f 54/33/33 53/2/2 61/3/3
f 54/33/33 61/3/3 62/32/32
f 62/32/32 61/3/3 69/4/4
f 62/32/32 69/4/4 70/31/31
f 70/31/31 69/4/4 77/5/5
f 70/31/31 77/5/5 78/30/30
f 78/30/30 77/5/5 83/6/6
f 78/30/30 83/6/6 84/29/29
f 84/29/29 83/6/6 97/7/7
f 84/29/29 97/7/7 98/28/28
f 98/28/28 97/7/7 109/8/8
f 98/28/28 109/8/8 110/27/27
f 110/27/27 109/8/8 115/9/9
f 110/27/27 115/9/9 116/26/26
f 116/26/26 115/9/9 125/10/10
f 116/26/26 125/10/10 126/25/25
f 126/25/25 125/10/10 133/11/11
f 126/25/25 133/11/11 134/24/24
f 134/24/24 133/11/11 141/12/12
f 134/24/24 141/12/12 142/23/23
f 142/23/23 141/12/12 147/13/13
f 142/23/23 147/13/13 148/22/22
f 148/22/22 147/13/13 151/14/14
f 148/22/22 151/14/14 152/21/21
f 152/21/21 151/14/14 155/15/15
f 152/21/21 155/15/15 156/20/20
f 156/20/20 155/15/15 161/16/16
f 156/20/20 161/16/16 162/19/19
f 162/19/19 161/16/16 167/17/17
f 162/19/19 167/17/17 168/18/18
f 209/35/35 215/36/36 210/104/104
f 210/104/104 215/36/36 216/103/103
f 216/103/103 215/36/36 219/37/37
f 216/103/103 219/37/37 220/102/102
f 220/102/102 219/37/37 221/38/38
f 220/102/102 221/38/38 222/101/101
f 222/101/101 221/38/38 217/39/39
f 222/101/101 217/39/39 218/100/100
f 218/100/100 217/39/39 211/40/40
f 218/100/100 211/40/40 212/99/99
f 212/99/99 211/40/40 205/41/41
f 212/99/99 205/41/41 206/98/98
f 206/98/98 205/41/41 199/42/42
f 206/98/98 199/42/42 200/97/97
f 200/97/97 199/42/42 197/43/43
f 200/97/97 197/43/43 198/96/96
f 198/96/96 197/43/43 191/44/44
f 198/96/96 191/44/44 192/95/95
f 192/95/95 191/44/44 185/45/45
f 192/95/95 185/45/45 186/94/94
f 186/94/94 185/45/45 179/46/46
f 186/94/94 179/46/46 180/93/93
f 180/93/93 179/46/46 171/47/47
f 180/93/93 171/47/47 172/92/92
f 172/92/92 171/47/47 163/48/48
f 172/92/92 163/48/48 164/91/91
f 164/91/91 163/48/48 153/49/49
f 164/91/91 153/49/49 154/90/90
f 154/90/90 153/49/49 143/50/50
f 154/90/90 143/50/50 144/89/89
f 144/89/89 143/50/50 139/51/51
f 144/89/89 139/51/51 140/88/88
f 140/88/88 139/51/51 137/52/52
f 140/88/88 137/52/52 138/87/87
f 138/87/87 137/52/52 129/53/53
f 138/87/87 129/53/53 130/86/86
f 130/86/86 129/53/53 127/54/54
f 130/86/86 127/54/54 128/85/85
f 128/85/85 127/54/54 121/55/55
f 128/85/85 121/55/55 122/84/84
f 122/84/84 121/55/55 119/56/56
f 122/84/84 119/56/56 120/83/83
f 120/83/83 119/56/56 111/57/57
f 120/83/83 111/57/57 112/82/82
f 112/82/82 111/57/57 105/58/58
f 112/82/82 105/58/58 106/81/81
f 106/81/81 105/58/58 89/59/59
f 106/81/81 89/59/59 90/80/80
f 90/80/80 89/59/59 73/60/60
f 90/80/80 73/60/60 74/79/79
f 74/79/79 73/60/60 67/61/61
f 74/79/79 67/61/61 68/78/78
f 68/78/78 67/61/61 59/62/62
f 68/78/78 59/62/62 60/77/77
f 60/77/77 59/62/62 57/63/63
f 60/77/77 57/63/63 58/76/76
f 58/76/76 57/63/63 51/64/64
f 58/76/76 51/64/64 52/75/75
f 52/75/75 51/64/64 47/65/65
f 52/75/75 47/65/65 48/74/74
f 48/74/74 47/65/65 45/66/66
f 48/74/74 45/66/66 46/73/73
f 46/73/73 45/66/66 41/67/67
f 46/73/73 41/67/67 42/72/72
f 42/72/72 41/67/67 39/68/68
f 42/72/72 39/68/68 40/71/71
f 40/71/71 39/68/68 43/69/69
f 40/71/71 43/69/69 44/70/70
f 167/105/105 175/106/106 168/114/114
f 168/114/114 175/106/106 176/113/113
f 176/113/113 175/106/106 187/107/107
f 176/113/113 187/107/107 188/112/112
f 188/112/112 187/107/107 195/108/108
f 188/112/112 195/108/108 196/111/111
f 196/111/111 195/108/108 209/109/109
f 196/111/111 209/109/109 210/110/110
f 168/115/115 176/116/116 162/168/168
f 162/168/168 176/116/116 156/167/167
f 156/167/167 176/116/116 152/166/166
f 152/166/166 176/116/116 188/117/117
f 152/166/166 188/117/117 148/165/165
f 148/165/165 188/117/117 142/164/164
f 142/164/164 188/117/117 196/118/118
f 142/164/164 196/118/118 200/126/126
f 200/126/126 196/118/118 206/125/125
f 206/125/125 196/118/118 212/124/124
f 212/124/124 196/118/118 218/123/123
f 218/123/123 196/118/118 222/122/122
f 222/122/122 196/118/118 220/121/121
f 220/121/121 196/118/118 216/120/120
f 216/120/120 196/118/118 210/119/119
f 142/164/164 200/126/126 134/163/163
f 134/163/163 200/126/126 198/127/127
f 134/163/163 198/127/127 192/128/128
f 134/163/163 192/128/128 126/162/162
f 126/162/162 192/128/128 186/129/129
f 126/162/162 186/129/129 180/130/130
f 126/162/162 180/130/130 116/161/161
f 116/161/161 180/130/130 172/131/131
f 116/161/161 172/131/131 110/160/160
f 110/160/160 172/131/131 164/132/132
f 110/160/160 164/132/132 98/159/159
f 98/159/159 164/132/132 154/133/133
f 98/159/159 154/133/133 84/158/158
f 84/158/158 154/133/133 144/134/134
f 84/158/158 144/134/134 140/135/135
f 84/158/158 140/135/135 78/157/157
f 78/157/157 140/135/135 138/136/136
f 78/157/157 138/136/136 130/137/137
f 130/137/137 128/138/138 78/157/157
f 78/157/157 128/138/138 70/156/156
f 70/156/156 128/138/138 122/139/139
f 70/156/156 122/139/139 120/140/140
f 120/140/140 112/141/141 70/156/156
f 70/156/156 112/141/141 62/155/155
f 62/155/155 112/141/141 106/142/142
f 62/155/155 106/142/142 90/143/143
f 62/155/155 90/143/143 54/154/154
f 54/154/154 90/143/143 74/144/144
f 54/154/154 74/144/144 68/145/145
f 68/145/145 60/146/146 54/154/154
f 54/154/154 60/146/146 44/153/153
f 44/153/153 60/146/146 58/147/147
f 44/153/153 58/147/147 52/148/148
f 52/148/148 48/149/149 44/153/153
f 44/153/153 48/149/149 40/152/152
f 40/152/152 48/149/149 42/151/151
f 42/151/151 48/149/149 46/150/150
f 209/169/169 195/170/170 215/222/222
f 215/222/222 195/170/170 219/221/221
f 219/221/221 195/170/170 221/220/220
f 221/220/220 195/170/170 217/219/219
f 217/219/219 195/170/170 211/218/218
f 211/218/218 195/170/170 205/217/217
f 205/217/217 195/170/170 199/216/216
f 199/216/216 195/170/170 141/178/178
f 199/216/216 141/178/178 133/179/179
f 195/170/170 187/171/171 141/178/178
f 141/178/178 187/171/171 147/177/177
f 147/177/177 187/171/171 151/176/176
f 151/176/176 187/171/171 175/172/172
f 151/176/176 175/172/172 155/175/175
f 155/175/175 175/172/172 161/174/174
f 161/174/174 175/172/172 167/173/173
f 125/180/180 191/214/214 133/179/179
f 133/179/179 191/214/214 197/215/215
f 133/179/179 197/215/215 199/216/216
f 115/181/181 179/212/212 125/180/180
f 125/180/180 179/212/212 185/213/213
f 125/180/180 185/213/213 191/214/214
f 179/212/212 115/181/181 171/211/211
f 171/211/211 115/181/181 109/182/182
f 171/211/211 109/182/182 163/210/210
f 163/210/210 109/182/182 97/183/183
f 163/210/210 97/183/183 153/209/209
f 153/209/209 97/183/183 83/184/184
f 153/209/209 83/184/184 143/208/208
f 143/208/208 83/184/184 139/207/207
f 139/207/207 83/184/184 77/185/185
f 139/207/207 77/185/185 137/206/206
f 137/206/206 77/185/185 129/205/205
f 129/205/205 77/185/185 127/204/204
f 127/204/204 77/185/185 69/186/186
f 127/204/204 69/186/186 121/203/203
f 121/203/203 69/186/186 119/202/202
f 119/202/202 69/186/186 111/201/201
f 111/201/201 69/186/186 61/187/187
f 111/201/201 61/187/187 105/200/200
f 105/200/200 61/187/187 89/199/199
f 89/199/199 61/187/187 53/188/188
f 89/199/199 53/188/188 73/198/198
f 73/198/198 53/188/188 67/197/197
f 67/197/197 53/188/188 59/196/196
f 59/196/196 53/188/188 43/189/189
f 59/196/196 43/189/189 57/195/195
f 57/195/195 43/189/189 51/194/194
f 51/194/194 43/189/189 47/193/193
f 47/193/193 43/189/189 39/190/190
f 47/193/193 39/190/190 41/191/191
f 41/191/191 45/192/192 47/193/193
f 277/223/223 267/224/224 278/256/256
f 278/256/256 267/224/224 268/255/255
f 268/255/255 267/224/224 261/225/225
f 268/255/255 261/225/225 262/254/254
f 262/254/254 261/225/225 255/226/226
f 262/254/254 255/226/226 256/253/253
f 256/253/253 255/226/226 249/227/227
f 256/253/253 249/227/227 250/252/252
f 250/252/252 249/227/227 245/228/228
f 250/252/252 245/228/228 246/251/251
f 246/251/251 245/228/228 239/229/229
f 246/251/251 239/229/229 240/250/250
f 240/250/250 239/229/229 233/230/230
f 240/250/250 233/230/230 234/249/249
f 234/249/249 233/230/230 201/231/231
f 234/249/249 201/231/231 202/248/248
f 202/248/248 201/231/231 183/232/232
f 202/248/248 183/232/232 184/247/247
f 184/247/247 183/232/232 173/233/233
f 184/247/247 173/233/233 174/246/246
f 174/246/246 173/233/233 159/234/234
f 174/246/246 159/234/234 160/245/245
f 160/245/245 159/234/234 149/235/235
f 160/245/245 149/235/235 150/244/244
f 150/244/244 149/235/235 135/236/236
f 150/244/244 135/236/236 136/243/243
f 136/243/243 135/236/236 117/237/237
f 136/243/243 117/237/237 118/242/242
f 118/242/242 117/237/237 107/238/238
f 118/242/242 107/238/238 108/241/241
f 108/241/241 107/238/238 87/239/239
f 108/241/241 87/239/239 88/240/240
f 229/257/257 235/258/258 230/294/294
f 230/294/294 235/258/258 236/293/293
f 236/293/293 235/258/258 237/259/259
f 236/293/293 237/259/259 238/292/292
f 238/292/292 237/259/259 241/260/260
f 238/292/292 241/260/260 242/291/291
f 242/291/291 241/260/260 243/261/261
f 242/291/291 243/261/261 244/290/290
f 244/290/290 243/261/261 247/262/262
f 244/290/290 247/262/262 248/289/289
f 248/289/289 247/262/262 251/263/263
f 248/289/289 251/263/263 252/288/288
f 252/288/288 251/263/263 253/264/264
f 252/288/288 253/264/264 254/287/287
f 254/287/287 253/264/264 257/265/265
f 254/287/287 257/265/265 258/286/286
f 258/286/286 257/265/265 259/266/266
f 258/286/286 259/266/266 260/285/285
f 260/285/285 259/266/266 263/267/267
f 260/285/285 263/267/267 264/284/284
f 264/284/284 263/267/267 265/268/268
f 264/284/284 265/268/268 266/283/283
f 266/283/283 265/268/268 269/269/269
f 266/283/283 269/269/269 270/282/282
f 270/282/282 269/269/269 271/270/270
f 270/282/282 271/270/270 272/281/281
f 272/281/281 271/270/270 273/271/271
f 272/281/281 273/271/271 274/280/280
f 274/280/280 273/271/271 275/272/272
f 274/280/280 275/272/272 276/279/279
f 276/279/279 275/272/272 279/273/273
f 276/279/279 279/273/273 280/278/278
f 280/278/278 279/273/273 281/274/274
f 280/278/278 281/274/274 282/277/277
f 282/277/277 281/274/274 277/275/275
f 282/277/277 277/275/275 278/276/276
f 19/295/295 21/296/296 20/354/354
f 20/354/354 21/296/296 22/353/353
f 22/353/353 21/296/296 25/297/297
f 22/353/353 25/297/297 26/352/352
f 26/352/352 25/297/297 27/298/298
f 26/352/352 27/298/298 28/351/351
f 28/351/351 27/298/298 31/299/299
f 28/351/351 31/299/299 32/350/350
f 32/350/350 31/299/299 33/300/300
f 32/350/350 33/300/300 34/349/349
f 34/349/349 33/300/300 37/301/301
f 34/349/349 37/301/301 38/348/348
f 38/348/348 37/301/301 55/302/302
f 38/348/348 55/302/302 56/347/347
f 56/347/347 55/302/302 65/303/303
f 56/347/347 65/303/303 66/346/346
f 66/346/346 65/303/303 75/304/304
f 66/346/346 75/304/304 76/345/345
f 76/345/345 75/304/304 85/305/305
f 76/345/345 85/305/305 86/344/344
f 86/344/344 85/305/305 113/306/306
f 86/344/344 113/306/306 114/343/343
f 114/343/343 113/306/306 123/307/307
f 114/343/343 123/307/307 124/342/342
f 124/342/342 123/307/307 131/308/308
f 124/342/342 131/308/308 132/341/341
f 132/341/341 131/308/308 145/309/309
f 132/341/341 145/309/309 146/340/340
f 146/340/340 145/309/309 157/310/310
f 146/340/340 157/310/310 158/339/339
f 158/339/339 157/310/310 165/311/311
f 158/339/339 165/311/311 166/338/338
f 166/338/338 165/311/311 169/312/312
f 166/338/338 169/312/312 170/337/337
f 170/337/337 169/312/312 177/313/313
f 170/337/337 177/313/313 178/336/336
f 178/336/336 177/313/313 181/314/314
f 178/336/336 181/314/314 182/335/335
f 182/335/335 181/314/314 189/315/315
f 182/335/335 189/315/315 190/334/334
f 190/334/334 189/315/315 193/316/316
f 190/334/334 193/316/316 194/333/333
f 194/333/333 193/316/316 203/317/317
f 194/333/333 203/317/317 204/332/332
f 204/332/332 203/317/317 207/318/318
f 204/332/332 207/318/318 208/331/331
f 208/331/331 207/318/318 213/319/319
f 208/331/331 213/319/319 214/330/330
f 214/330/330 213/319/319 223/320/320
f 214/330/330 223/320/320 224/329/329
f 224/329/329 223/320/320 225/321/321
f 224/329/329 225/321/321 226/328/328
f 226/328/328 225/321/321 227/322/322
f 226/328/328 227/322/322 228/327/327
f 228/327/327 227/322/322 231/323/323
f 228/327/327 231/323/323 232/326/326
f 232/326/326 231/323/323 229/324/324
f 232/326/326 229/324/324 230/325/325
f 1/355/355 3/356/356 2/372/372
f 2/372/372 3/356/356 4/371/371
f 4/371/371 3/356/356 5/357/357
f 4/371/371 5/357/357 6/370/370
f 6/370/370 5/357/357 7/358/358
f 6/370/370 7/358/358 8/369/369
f 8/369/369 7/358/358 9/359/359
f 8/369/369 9/359/359 10/368/368
f 10/368/368 9/359/359 11/360/360
f 10/368/368 11/360/360 12/367/367
f 12/367/367 11/360/360 13/361/361
f 12/367/367 13/361/361 14/366/366
f 14/366/366 13/361/361 17/362/362
f 14/366/366 17/362/362 18/365/365
f 18/365/365 17/362/362 19/363/363
f 18/365/365 19/363/363 20/364/364
f 87/373/373 93/374/374 88/406/406
f 88/406/406 93/374/374 94/405/405
f 94/405/405 93/374/374 99/375/375
f 94/405/405 99/375/375 100/404/404
f 100/404/404 99/375/375 103/376/376
f 100/404/404 103/376/376 104/403/403
f 104/403/403 103/376/376 101/377/377
f 104/403/403 101/377/377 102/402/402
f 102/402/402 101/377/377 95/378/378
f 102/402/402 95/378/378 96/401/401
f 96/401/401 95/378/378 91/379/379
f 96/401/401 91/379/379 92/400/400
f 92/400/400 91/379/379 81/380/380
f 92/400/400 81/380/380 82/399/399
f 82/399/399 81/380/380 79/381/381
f 82/399/399 79/381/381 80/398/398
f 80/398/398 79/381/381 71/382/382
f 80/398/398 71/382/382 72/397/397
f 72/397/397 71/382/382 63/383/383
f 72/397/397 63/383/383 64/396/396
f 64/396/396 63/383/383 49/384/384
f 64/396/396 49/384/384 50/395/395
f 50/395/395 49/384/384 35/385/385
f 50/395/395 35/385/385 36/394/394
f 36/394/394 35/385/385 29/386/386
f 36/394/394 29/386/386 30/393/393
f 30/393/393 29/386/386 23/387/387
f 30/393/393 23/387/387 24/392/392
f 24/392/392 23/387/387 15/388/388
f 24/392/392 15/388/388 16/391/391
f 16/391/391 15/388/388 2/390/390
f 2/390/390 15/388/388 1/389/389
f 88/407/407 94/408/408 108/493/493
f 108/493/493 94/408/408 100/409/409
f 108/493/493 100/409/409 118/492/492
f 118/492/492 100/409/409 136/491/491
f 136/491/491 100/409/409 104/410/410
f 136/491/491 104/410/410 150/490/490
f 150/490/490 104/410/410 102/411/411
f 150/490/490 102/411/411 160/489/489
f 160/489/489 102/411/411 96/412/412
f 160/489/489 96/412/412 174/488/488
f 174/488/488 96/412/412 184/487/487
f 184/487/487 96/412/412 92/413/413
f 184/487/487 92/413/413 202/486/486
f 202/486/486 92/413/413 146/445/445
f 202/486/486 146/445/445 234/485/485
f 234/485/485 146/445/445 270/472/472
f 234/485/485 270/472/472 272/473/473
f 146/445/445 92/413/413 132/444/444
f 132/444/444 92/413/413 82/414/414
f 132/444/444 82/414/414 124/443/443
f 124/443/443 82/414/414 80/415/415
f 124/443/443 80/415/415 114/442/442
f 114/442/442 80/415/415 72/416/416
f 114/442/442 72/416/416 86/441/441
f 86/441/441 72/416/416 64/417/417
f 86/441/441 64/417/417 76/440/440
f 76/440/440 64/417/417 66/439/439
f 66/439/439 64/417/417 50/418/418
f 66/439/439 50/418/418 56/438/438
f 56/438/438 50/418/418 38/437/437
f 38/437/437 50/418/418 34/436/436
f 34/436/436 50/418/418 32/435/435
f 32/435/435 50/418/418 28/434/434
f 28/434/434 50/418/418 26/433/433
f 26/433/433 50/418/418 22/432/432
f 22/432/432 50/418/418 20/431/431
f 20/431/431 50/418/418 18/430/430
f 18/430/430 50/418/418 36/419/419
f 18/430/430 36/419/419 14/429/429
f 14/429/429 36/419/419 30/420/420
f 14/429/429 30/420/420 12/428/428
f 12/428/428 30/420/420 10/427/427
f 10/427/427 30/420/420 24/421/421
f 10/427/427 24/421/421 8/426/426
f 8/426/426 24/421/421 16/422/422
f 8/426/426 16/422/422 6/425/425
f 6/425/425 16/422/422 4/424/424
f 4/424/424 16/422/422 2/423/423
f 270/472/472 146/445/445 266/471/471
f 266/471/471 146/445/445 158/446/446
f 266/471/471 158/446/446 264/470/470
f 264/470/470 158/446/446 166/447/447
f 264/470/470 166/447/447 260/469/469
f 260/469/469 166/447/447 170/448/448
f 260/469/469 170/448/448 258/468/468
f 258/468/468 170/448/448 178/449/449
f 258/468/468 178/449/449 254/467/467
f 254/467/467 178/449/449 182/450/450
f 254/467/467 182/450/450 252/466/466
f 252/466/466 182/450/450 190/451/451
f 252/466/466 190/451/451 194/452/452
f 252/466/466 194/452/452 248/465/465
f 248/465/465 194/452/452 204/453/453
f 248/465/465 204/453/453 208/454/454
f 248/465/465 208/454/454 244/464/464
f 244/464/464 208/454/454 214/455/455
f 244/464/464 214/455/455 242/463/463
f 242/463/463 214/455/455 224/456/456
f 242/463/463 224/456/456 238/462/462
f 238/462/462 224/456/456 226/457/457
f 238/462/462 226/457/457 228/458/458
f 238/462/462 228/458/458 236/461/461
f 236/461/461 228/458/458 232/459/459
f 236/461/461 232/459/459 230/460/460
f 234/485/485 272/473/473 240/484/484
f 240/484/484 272/473/473 274/474/474
f 240/484/484 274/474/474 246/483/483
f 246/483/483 274/474/474 276/475/475
f 246/483/483 276/475/475 250/482/482
f 250/482/482 276/475/475 256/481/481
f 256/481/481 276/475/475 280/476/476
f 256/481/481 280/476/476 262/480/480
f 262/480/480 280/476/476 282/477/477
f 262/480/480 282/477/477 268/479/479
f 268/479/479 282/477/477 278/478/478
f 1/494/494 15/495/495 3/580/580
f 3/580/580 15/495/495 5/579/579
f 5/579/579 15/495/495 7/578/578
f 7/578/578 15/495/495 23/496/496
f 7/578/578 23/496/496 9/577/577
f 9/577/577 23/496/496 29/497/497
f 9/577/577 29/497/497 11/576/576
f 11/576/576 29/497/497 13/575/575
f 13/575/575 29/497/497 35/498/498
f 13/575/575 35/498/498 17/574/574
f 17/574/574 35/498/498 49/499/499
f 17/574/574 49/499/499 19/573/573
f 19/573/573 49/499/499 21/572/572
f 21/572/572 49/499/499 25/571/571
f 25/571/571 49/499/499 27/570/570
f 27/570/570 49/499/499 31/569/569
f 31/569/569 49/499/499 33/568/568
f 33/568/568 49/499/499 37/567/567
f 37/567/567 49/499/499 55/566/566
f 55/566/566 49/499/499 65/565/565
f 65/565/565 49/499/499 63/500/500
f 65/565/565 63/500/500 75/564/564
f 75/564/564 63/500/500 85/563/563
f 85/563/563 63/500/500 71/501/501
f 85/563/563 71/501/501 113/562/562
f 113/562/562 71/501/501 79/502/502
f 113/562/562 79/502/502 123/561/561
f 123/561/561 79/502/502 81/503/503
f 123/561/561 81/503/503 131/560/560
f 131/560/560 81/503/503 91/504/504
f 131/560/560 91/504/504 145/559/559
f 145/559/559 91/504/504 201/518/518
f 145/559/559 201/518/518 233/519/519
f 201/518/518 91/504/504 183/517/517
f 183/517/517 91/504/504 95/505/505
f 183/517/517 95/505/505 173/516/516
f 173/516/516 95/505/505 159/515/515
f 159/515/515 95/505/505 101/506/506
f 159/515/515 101/506/506 149/514/514
f 149/514/514 101/506/506 103/507/507
f 149/514/514 103/507/507 135/513/513
f 135/513/513 103/507/507 99/508/508
f 135/513/513 99/508/508 117/512/512
f 117/512/512 99/508/508 107/511/511
f 107/511/511 99/508/508 93/509/509
f 107/511/511 93/509/509 87/510/510
f 239/520/520 271/531/531 233/519/519
f 233/519/519 271/531/531 269/532/532
f 233/519/519 269/532/532 145/559/559
f 145/559/559 269/532/532 265/533/533
f 145/559/559 265/533/533 157/558/558
f 157/558/558 265/533/533 263/534/534
f 157/558/558 263/534/534 165/557/557
f 165/557/557 263/534/534 259/535/535
f 165/557/557 259/535/535 169/556/556
f 169/556/556 259/535/535 257/536/536
f 169/556/556 257/536/536 177/555/555
f 177/555/555 257/536/536 253/537/537
f 177/555/555 253/537/537 181/554/554
f 181/554/554 253/537/537 251/538/538
f 181/554/554 251/538/538 189/553/553
f 189/553/553 251/538/538 193/552/552
f 193/552/552 251/538/538 247/539/539
f 193/552/552 247/539/539 203/551/551
f 203/551/551 247/539/539 207/550/550
f 207/550/550 247/539/539 243/540/540
f 207/550/550 243/540/540 213/549/549
f 213/549/549 243/540/540 241/541/541
f 213/549/549 241/541/541 223/548/548
f 223/548/548 241/541/541 237/542/542
f 223/548/548 237/542/542 225/547/547
f 225/547/547 237/542/542 227/546/546
f 227/546/546 237/542/542 235/543/543
f 227/546/546 235/543/543 231/545/545
f 231/545/545 235/543/543 229/544/544
f 271/531/531 239/520/520 273/530/530
f 273/530/530 239/520/520 245/521/521
f 273/530/530 245/521/521 275/529/529
f 275/529/529 245/521/521 249/522/522
f 275/529/529 249/522/522 255/523/523
f 275/529/529 255/523/523 279/528/528
f 279/528/528 255/523/523 261/524/524
f 279/528/528 261/524/524 281/527/527
f 281/527/527 261/524/524 267/525/525
f 281/527/527 267/525/525 277/526/526

# 282 vertices
# 580 texture params
# 580 normals
# 556 facets

# 1 groups
